<svg width="59" height="41" viewBox="0 0 59 41" fill="none" xmlns="http://www.w3.org/2000/svg">
<path d="M1.40633 40.92L0.346328 38.64L3.28633 37.44C3.60633 37.32 3.90633 37.18 4.22633 37.06V28.68L6.28633 28.3V36.18C6.28633 38.02 5.54633 39.24 4.12633 39.82L1.40633 40.92ZM8.43539 37.34V24.86L10.5754 24.26V36.74L8.43539 37.34ZM13.9668 25.86V23.52H16.4068V25.86H13.9668ZM11.3868 40.92L10.3268 38.62L13.2468 37.46C13.5668 37.32 13.8468 37.2 14.1468 37.08V28.54L16.2868 28.12V32.74C16.2868 33.72 16.9468 34.28 17.7468 34.28H18.8068C19.2668 34.28 19.6468 34.88 19.6468 35.64C19.6468 36.4 19.2668 37 18.8068 37H17.8468C17.0868 37 16.4268 36.78 15.9468 36.24V36.98C15.9068 38.32 15.3268 39.32 14.1268 39.82L11.3868 40.92ZM18.7988 37C18.3388 37 17.9788 36.4 17.9788 35.64C17.9788 34.88 18.3388 34.28 18.7988 34.28H23.9188C24.3788 34.28 24.7388 34.88 24.7388 35.64C24.7388 36.4 24.3788 37 23.9188 37H18.7988ZM23.916 37C23.456 37 23.096 36.4 23.096 35.64C23.096 34.88 23.456 34.28 23.916 34.28H29.036C29.496 34.28 29.856 34.88 29.856 35.64C29.856 36.4 29.496 37 29.036 37H23.916ZM29.0332 37C28.5732 37 28.2132 36.4 28.2132 35.64C28.2132 34.88 28.5732 34.28 29.0332 34.28H34.1532C34.6132 34.28 34.9732 34.88 34.9732 35.64C34.9732 36.4 34.6132 37 34.1532 37H29.0332ZM34.1504 37C33.6904 37 33.3304 36.4 33.3304 35.64C33.3304 34.88 33.6904 34.28 34.1504 34.28H39.2704C39.7304 34.28 40.0904 34.88 40.0904 35.64C40.0904 36.4 39.7304 37 39.2704 37H34.1504ZM39.2676 37C38.8076 37 38.4476 36.4 38.4476 35.64C38.4476 34.88 38.8076 34.28 39.2676 34.28H44.3876C44.8476 34.28 45.2076 34.88 45.2076 35.64C45.2076 36.4 44.8476 37 44.3876 37H39.2676ZM48.0848 22.6V20.28H50.5248V22.6H48.0848ZM44.3648 37C43.9248 37 43.5448 36.4 43.5448 35.64C43.5448 34.88 43.9248 34.28 44.3648 34.28H50.6448H51.3848V32.86L51.0448 32.96C50.8048 33.06 50.5248 33.12 50.2648 33.12H47.6848C46.5048 33.12 45.5448 32.34 45.3848 31.14L45.1648 29.62C44.8048 27.14 46.0248 25.28 48.4048 24.78L51.7648 24.04L52.6848 24.82C53.1648 25.2 53.4048 25.76 53.4048 26.36V33.98C53.4048 35.74 52.1248 37 50.3848 37H44.3648ZM47.4248 30.82H51.3648V26.38L48.6448 26.96C47.4048 27.24 46.9648 27.88 47.1648 29.2L47.4248 30.82ZM55.7205 37.34V24.86L57.8605 24.26V36.74L55.7205 37.34Z" fill="white"/>
<path d="M7.00305 14.84C3.50305 14.84 1.62305 12.36 2.48305 8.56L3.06305 5.92H4.98305L4.38305 8.6C3.90305 10.82 4.94305 12.12 7.00305 12.12H8.32305C9.50305 12.12 10.223 11.8 10.723 11.32L9.70305 3.68L11.683 2.9L12.423 8.28H15.203C15.983 8.28 16.503 7.7 16.503 6.9V4.52H18.503V7.04C18.503 7.32 18.483 7.58 18.463 7.84L21.783 8.76L20.463 2.14L22.483 1.06L23.803 7.78C24.003 8.7 23.803 9.52 23.143 10.32L22.183 11.48L17.383 10.14C16.823 10.76 16.003 11 15.023 11H12.683C12.663 11.28 12.643 11.54 12.603 11.8C12.403 13.16 11.043 14.84 7.98305 14.84H7.00305ZM23.8477 14.92L22.7877 12.62L25.7077 11.46C26.0277 11.32 26.3077 11.2 26.6077 11.08V2.54L28.7477 2.12V6.74C28.7477 7.72 29.4077 8.28 30.2077 8.28H31.2677C31.7277 8.28 32.1077 8.88 32.1077 9.64C32.1077 10.4 31.7277 11 31.2677 11H30.3077C29.5477 11 28.8877 10.78 28.4077 10.24V10.98C28.3677 12.32 27.7877 13.32 26.5877 13.82L23.8477 14.92ZM31.2598 11C30.7998 11 30.4398 10.4 30.4398 9.64C30.4398 8.88 30.7998 8.28 31.2598 8.28H36.3798C36.8398 8.28 37.1998 8.88 37.1998 9.64C37.1998 10.4 36.8398 11 36.3798 11H31.2598ZM36.377 11C35.917 11 35.557 10.4 35.557 9.64C35.557 8.88 35.917 8.28 36.377 8.28H41.497C41.957 8.28 42.317 8.88 42.317 9.64C42.317 10.4 41.957 11 41.497 11H36.377ZM41.4941 11C41.0341 11 40.6741 10.4 40.6741 9.64C40.6741 8.88 41.0341 8.28 41.4941 8.28H46.6141C47.0741 8.28 47.4341 8.88 47.4341 9.64C47.4341 10.4 47.0741 11 46.6141 11H41.4941ZM46.6113 11C46.1513 11 45.7913 10.4 45.7913 9.64C45.7913 8.88 46.1513 8.28 46.6113 8.28H51.7313C52.1913 8.28 52.5513 8.88 52.5513 9.64C52.5513 10.4 52.1913 11 51.7313 11H46.6113ZM51.7085 11C51.2485 11 50.8885 10.4 50.8885 9.64C50.8885 8.88 51.2485 8.28 51.7085 8.28H53.4685C54.4885 8.28 55.1485 8.02 55.5885 7.58L54.4085 1.76L56.5285 0.74L57.5685 5.76C58.2085 8.88 56.4685 11 53.4085 11H51.7085ZM51.4685 13.24H56.5885V15.28H51.4685V13.24ZM55.1285 15.5L55.1685 17.56H52.8885L52.9285 15.5H55.1285Z" fill="#2979FF"/>
</svg>
