<svg width="116" height="80" viewBox="0 0 116 80" fill="none" xmlns="http://www.w3.org/2000/svg">
<path d="M2.31266 79.84L0.192656 75.28L6.07266 72.88C6.71266 72.64 7.31266 72.36 7.95266 72.12V55.36L12.0727 54.6V70.36C12.0727 74.04 10.5927 76.48 7.75266 77.64L2.31266 79.84ZM16.3708 72.68V47.72L20.6508 46.52V71.48L16.3708 72.68ZM27.4336 49.72V45.04H32.3136V49.72H27.4336ZM22.2736 79.84L20.1536 75.24L25.9936 72.92C26.6336 72.64 27.1936 72.4 27.7936 72.16V55.08L32.0736 54.24V63.48C32.0736 65.44 33.3936 66.56 34.9936 66.56H37.1136C38.0336 66.56 38.7936 67.76 38.7936 69.28C38.7936 70.8 38.0336 72 37.1136 72H35.1936C33.6736 72 32.3536 71.56 31.3936 70.48V71.96C31.3136 74.64 30.1536 76.64 27.7536 77.64L22.2736 79.84ZM37.0977 72C36.1777 72 35.4577 70.8 35.4577 69.28C35.4577 67.76 36.1777 66.56 37.0977 66.56H47.3377C48.2577 66.56 48.9777 67.76 48.9777 69.28C48.9777 70.8 48.2577 72 47.3377 72H37.0977ZM47.332 72C46.412 72 45.692 70.8 45.692 69.28C45.692 67.76 46.412 66.56 47.332 66.56H57.572C58.492 66.56 59.212 67.76 59.212 69.28C59.212 70.8 58.492 72 57.572 72H47.332ZM57.5664 72C56.6464 72 55.9264 70.8 55.9264 69.28C55.9264 67.76 56.6464 66.56 57.5664 66.56H67.8064C68.7264 66.56 69.4464 67.76 69.4464 69.28C69.4464 70.8 68.7264 72 67.8064 72H57.5664ZM67.8008 72C66.8808 72 66.1608 70.8 66.1608 69.28C66.1608 67.76 66.8808 66.56 67.8008 66.56H78.0408C78.9608 66.56 79.6808 67.76 79.6808 69.28C79.6808 70.8 78.9608 72 78.0408 72H67.8008ZM78.0352 72C77.1152 72 76.3952 70.8 76.3952 69.28C76.3952 67.76 77.1152 66.56 78.0352 66.56H88.2752C89.1952 66.56 89.9152 67.76 89.9152 69.28C89.9152 70.8 89.1952 72 88.2752 72H78.0352ZM95.6695 43.2V38.56H100.55V43.2H95.6695ZM88.2295 72C87.3495 72 86.5895 70.8 86.5895 69.28C86.5895 67.76 87.3495 66.56 88.2295 66.56H100.79H102.27V63.72L101.59 63.92C101.11 64.12 100.55 64.24 100.03 64.24H94.8695C92.5095 64.24 90.5895 62.68 90.2695 60.28L89.8295 57.24C89.1095 52.28 91.5495 48.56 96.3095 47.56L103.03 46.08L104.87 47.64C105.83 48.4 106.31 49.52 106.31 50.72V65.96C106.31 69.48 103.75 72 100.27 72H88.2295ZM94.3495 59.64H102.23V50.76L96.7895 51.92C94.3095 52.48 93.4295 53.76 93.8295 56.4L94.3495 59.64ZM110.941 72.68V47.72L115.221 46.52V71.48L110.941 72.68Z" fill="white"/>
<path d="M13.5061 28.68C6.50609 28.68 2.74609 23.72 4.46609 16.12L5.62609 10.84H9.46609L8.26609 16.2C7.30609 20.64 9.38609 23.24 13.5061 23.24H16.1461C18.5061 23.24 19.9461 22.6 20.9461 21.64L18.9061 6.36L22.8661 4.8L24.3461 15.56H29.9061C31.4661 15.56 32.5061 14.4 32.5061 12.8V8.04H36.5061V13.08C36.5061 13.64 36.4661 14.16 36.4261 14.68L43.0661 16.52L40.4261 3.28L44.4661 1.12L47.1061 14.56C47.5061 16.4 47.1061 18.04 45.7861 19.64L43.8661 21.96L34.2661 19.28C33.1461 20.52 31.5061 21 29.5461 21H24.8661C24.8261 21.56 24.7861 22.08 24.7061 22.6C24.3061 25.32 21.5861 28.68 15.4661 28.68H13.5061ZM47.1955 28.84L45.0755 24.24L50.9155 21.92C51.5555 21.64 52.1155 21.4 52.7155 21.16V4.08L56.9955 3.24V12.48C56.9955 14.44 58.3155 15.56 59.9155 15.56H62.0355C62.9555 15.56 63.7155 16.76 63.7155 18.28C63.7155 19.8 62.9555 21 62.0355 21H60.1155C58.5955 21 57.2755 20.56 56.3155 19.48V20.96C56.2355 23.64 55.0755 25.64 52.6755 26.64L47.1955 28.84ZM62.0195 21C61.0995 21 60.3795 19.8 60.3795 18.28C60.3795 16.76 61.0995 15.56 62.0195 15.56H72.2595C73.1795 15.56 73.8995 16.76 73.8995 18.28C73.8995 19.8 73.1795 21 72.2595 21H62.0195ZM72.2539 21C71.3339 21 70.6139 19.8 70.6139 18.28C70.6139 16.76 71.3339 15.56 72.2539 15.56H82.4939C83.4139 15.56 84.1339 16.76 84.1339 18.28C84.1339 19.8 83.4139 21 82.4939 21H72.2539ZM82.4883 21C81.5683 21 80.8483 19.8 80.8483 18.28C80.8483 16.76 81.5683 15.56 82.4883 15.56H92.7283C93.6483 15.56 94.3683 16.76 94.3683 18.28C94.3683 19.8 93.6483 21 92.7283 21H82.4883ZM92.7227 21C91.8027 21 91.0827 19.8 91.0827 18.28C91.0827 16.76 91.8027 15.56 92.7227 15.56H102.963C103.883 15.56 104.603 16.76 104.603 18.28C104.603 19.8 103.883 21 102.963 21H92.7227ZM102.917 21C101.997 21 101.277 19.8 101.277 18.28C101.277 16.76 101.997 15.56 102.917 15.56H106.437C108.477 15.56 109.797 15.04 110.677 14.16L108.317 2.52L112.557 0.48L114.637 10.52C115.917 16.76 112.437 21 106.317 21H102.917ZM102.437 25.48H112.677V29.56H102.437V25.48ZM109.757 30L109.837 34.12H105.277L105.357 30H109.757Z" fill="#2979FF"/>
</svg>
