<svg width="23" height="22" viewBox="0 0 23 22" fill="none" xmlns="http://www.w3.org/2000/svg">
<g id="Outline / Time / Calendar Minimalistic">
<path id="Vector" fill-rule="evenodd" clip-rule="evenodd" d="M6.75002 1.60417C7.12972 1.60417 7.43752 1.91197 7.43752 2.29167V2.99083C8.04438 2.97916 8.71297 2.97916 9.44831 2.97917H13.2184C13.9537 2.97916 14.6223 2.97916 15.2292 2.99083V2.29167C15.2292 1.91197 15.537 1.60417 15.9167 1.60417C16.2964 1.60417 16.6042 1.91197 16.6042 2.29167V3.04983C16.8425 3.068 17.0681 3.09083 17.2816 3.11954C18.3563 3.26403 19.2262 3.56847 19.9122 4.25447C20.5982 4.94047 20.9027 5.81034 21.0471 6.88506C21.0933 7.22853 21.1243 7.60337 21.1451 8.01173C21.1725 8.08597 21.1875 8.16623 21.1875 8.25C21.1875 8.31355 21.1789 8.37507 21.1628 8.43349C21.1875 9.16863 21.1875 10.0034 21.1875 10.9483V12.885C21.1875 14.5697 21.1875 15.904 21.0471 16.9483C20.9027 18.023 20.5982 18.8929 19.9122 19.5789C19.2262 20.2649 18.3563 20.5693 17.2816 20.7138C16.2373 20.8542 14.903 20.8542 13.2184 20.8542H9.44831C7.7637 20.8542 6.42936 20.8542 5.38508 20.7138C4.31036 20.5693 3.44049 20.2649 2.75449 19.5789C2.06849 18.8929 1.76405 18.023 1.61956 16.9483C1.47916 15.904 1.47917 14.5697 1.47919 12.885V10.9483C1.47918 10.0034 1.47917 9.16863 1.50395 8.43349C1.48781 8.37508 1.47919 8.31355 1.47919 8.25C1.47919 8.16623 1.49417 8.08596 1.5216 8.01173C1.5424 7.60337 1.57338 7.22853 1.61956 6.88506C1.76405 5.81034 2.06849 4.94047 2.75449 4.25447C3.44049 3.56847 4.31036 3.26403 5.38508 3.11954C5.5986 3.09083 5.82424 3.068 6.06252 3.04983V2.29167C6.06252 1.91197 6.37033 1.60417 6.75002 1.60417ZM2.86618 8.9375C2.85448 9.53584 2.85419 10.2172 2.85419 11V12.8333C2.85419 14.5813 2.85565 15.823 2.9823 16.7651C3.10629 17.6873 3.33882 18.2186 3.72677 18.6066C4.11471 18.9945 4.64605 19.2271 5.5683 19.3511C6.51032 19.4777 7.7521 19.4792 9.50002 19.4792H13.1667C14.9146 19.4792 16.1564 19.4777 17.0984 19.3511C18.0207 19.2271 18.552 18.9945 18.9399 18.6066C19.3279 18.2186 19.5604 17.6873 19.6844 16.7651C19.8111 15.823 19.8125 14.5813 19.8125 12.8333V11C19.8125 10.2172 19.8122 9.53584 19.8005 8.9375H2.86618ZM19.7376 7.5625H2.92906C2.94374 7.38889 2.9613 7.22447 2.9823 7.06828C3.10629 6.14603 3.33882 5.61469 3.72677 5.22675C4.11471 4.8388 4.64605 4.60627 5.5683 4.48228C6.51032 4.35563 7.7521 4.35417 9.50002 4.35417H13.1667C14.9146 4.35417 16.1564 4.35563 17.0984 4.48228C18.0207 4.60627 18.552 4.8388 18.9399 5.22675C19.3279 5.61469 19.5604 6.14603 19.6844 7.06828C19.7054 7.22447 19.723 7.38889 19.7376 7.5625Z" fill="#777777"/>
</g>
</svg>
