<svg width="24" height="25" viewBox="0 0 24 25" fill="none" xmlns="http://www.w3.org/2000/svg">
<g id="Outline / Business, Statistic / Pie Chart">
<g id="Vector">
<path fill-rule="evenodd" clip-rule="evenodd" d="M14.2544 1.61452C13.1584 1.30858 12.132 1.63931 11.4026 2.30953C10.6845 2.96938 10.25 3.9555 10.25 5.01062V11.7051C10.25 12.9725 11.2775 14 12.5449 14H19.2394C20.2945 14 21.2806 13.5655 21.9405 12.8474C22.6107 12.118 22.9414 11.0916 22.6355 9.99562C21.5034 5.94001 18.31 2.74661 14.2544 1.61452ZM11.75 5.01062C11.75 4.3593 12.0201 3.77917 12.4175 3.41406C12.8035 3.05934 13.3035 2.90642 13.8511 3.05928C17.4013 4.05029 20.1997 6.84874 21.1907 10.3989C21.3436 10.9465 21.1907 11.4465 20.8359 11.8325C20.4708 12.2299 19.8907 12.5 19.2394 12.5H12.5449C12.1059 12.5 11.75 12.1441 11.75 11.7051V5.01062Z" fill="#333333"/>
<path d="M8.67232 4.96554C9.0675 4.84142 9.28724 4.42044 9.16312 4.02526C9.039 3.63008 8.61803 3.41034 8.22285 3.53446C4.18231 4.80352 1.25 8.57792 1.25 13.0392C1.25 18.5404 5.70962 23 11.2108 23C15.6721 23 19.4465 20.0677 20.7155 16.0272C20.8397 15.632 20.6199 15.211 20.2247 15.0869C19.8296 14.9628 19.4086 15.1825 19.2845 15.5777C18.2061 19.011 14.9982 21.5 11.2108 21.5C6.53805 21.5 2.75 17.712 2.75 13.0392C2.75 9.25184 5.23899 6.04388 8.67232 4.96554Z" fill="#333333"/>
</g>
</g>
</svg>
