<svg width="25" height="25" viewBox="0 0 25 25" fill="none" xmlns="http://www.w3.org/2000/svg">
<g id="Outline / Arrows Action / Download Minimalistic">
<g id="Vector">
<path d="M13.0535 17.0061C12.9114 17.1615 12.7106 17.25 12.5 17.25C12.2894 17.25 12.0886 17.1615 11.9465 17.0061L7.94648 12.6311C7.66698 12.3254 7.68822 11.851 7.99392 11.5715C8.29963 11.292 8.77402 11.3132 9.05352 11.6189L11.75 14.5682V3.5C11.75 3.08579 12.0858 2.75 12.5 2.75C12.9142 2.75 13.25 3.08579 13.25 3.5V14.5682L15.9465 11.6189C16.226 11.3132 16.7004 11.292 17.0061 11.5715C17.3118 11.851 17.333 12.3254 17.0535 12.6311L13.0535 17.0061Z" fill="#2979FF"/>
<path d="M4.25 15.5C4.25 15.0858 3.91422 14.75 3.5 14.75C3.08579 14.75 2.75 15.0858 2.75 15.5V15.5549C2.74998 16.9225 2.74996 18.0248 2.86652 18.8918C2.98754 19.7919 3.24643 20.5497 3.84835 21.1516C4.45027 21.7536 5.20814 22.0125 6.10825 22.1335C6.97522 22.25 8.07754 22.25 9.44513 22.25H15.5549C16.9225 22.25 18.0248 22.25 18.8918 22.1335C19.7919 22.0125 20.5497 21.7536 21.1517 21.1516C21.7536 20.5497 22.0125 19.7919 22.1335 18.8918C22.25 18.0248 22.25 16.9225 22.25 15.5549V15.5C22.25 15.0858 21.9142 14.75 21.5 14.75C21.0858 14.75 20.75 15.0858 20.75 15.5C20.75 16.9354 20.7484 17.9365 20.6469 18.6919C20.5482 19.4257 20.3678 19.8142 20.091 20.091C19.8142 20.3678 19.4257 20.5482 18.6919 20.6469C17.9365 20.7484 16.9354 20.75 15.5 20.75H9.5C8.06459 20.75 7.06347 20.7484 6.30812 20.6469C5.57435 20.5482 5.18577 20.3678 4.90901 20.091C4.63225 19.8142 4.4518 19.4257 4.35315 18.6919C4.25159 17.9365 4.25 16.9354 4.25 15.5Z" fill="#2979FF"/>
</g>
</g>
</svg>
