<svg width="80" height="80" viewBox="0 0 80 80" fill="none" xmlns="http://www.w3.org/2000/svg">
<g id="Frame">
<g id="Group">
<path id="Vector" d="M46.6667 20H53.3334V26.6666H70.0001C70.8841 26.6666 71.732 27.0178 72.3571 27.6429C72.9822 28.2681 73.3334 29.1159 73.3334 30V55L53.3334 43.3333L53.4534 70.2066L60.8634 63.04L66.8034 73.3333H30.0001C29.116 73.3333 28.2682 72.9821 27.6431 72.357C27.0179 71.7319 26.6667 70.884 26.6667 70V53.3333H20.0001V46.6666H26.6667V30C26.6667 29.1159 27.0179 28.2681 27.6431 27.6429C28.2682 27.0178 29.116 26.6666 30.0001 26.6666H46.6667V20ZM73.3334 57.7933V70C73.3337 70.3473 73.2797 70.6926 73.1734 71.0233L66.6401 59.71L73.3334 57.7933ZM13.3334 46.6666V53.3333C9.65152 53.3333 6.66675 50.3485 6.66675 46.6666H13.3334ZM13.3334 33.3333V40H6.66675V33.3333H13.3334ZM13.3334 20V26.6666H6.66675V20H13.3334ZM13.3334 6.66663V13.3333H6.66675C6.66675 9.65139 9.65152 6.66663 13.3334 6.66663ZM26.6667 6.66663V13.3333H20.0001V6.66663H26.6667ZM40.0001 6.66663V13.3333H33.3334V6.66663H40.0001ZM46.6667 6.66663C50.3486 6.66663 53.3334 9.65139 53.3334 13.3333H46.6667V6.66663Z" fill="#333333"/>
</g>
</g>
</svg>
