<svg width="24" height="25" viewBox="0 0 24 25" fill="none" xmlns="http://www.w3.org/2000/svg">
<path d="M12.0002 3.25C5.06324 3.25 2.75024 5.563 2.75024 12.5C2.75024 19.437 5.06324 21.75 12.0002 21.75C18.9372 21.75 21.2502 19.437 21.2502 12.5" stroke="#333333" stroke-width="1.5" stroke-linecap="round" stroke-linejoin="round"/>
<path fill-rule="evenodd" clip-rule="evenodd" d="M19.5285 4.80364V4.80364C18.5355 3.92464 17.0185 4.01664 16.1395 5.00964C16.1395 5.00964 11.7705 9.94464 10.2555 11.6576C8.73853 13.3696 9.85053 15.7346 9.85053 15.7346C9.85053 15.7346 12.3545 16.5276 13.8485 14.8396C15.3435 13.1516 19.7345 8.19264 19.7345 8.19264C20.6135 7.19964 20.5205 5.68264 19.5285 4.80364Z" stroke="#333333" stroke-width="1.5" stroke-linecap="round" stroke-linejoin="round"/>
<path d="M15.009 6.30078L18.604 9.48378" stroke="#333333" stroke-width="1.5" stroke-linecap="round" stroke-linejoin="round"/>
</svg>
