<svg width="24" height="25" viewBox="0 0 24 25" fill="none" xmlns="http://www.w3.org/2000/svg">
<g id="Outline / Security / Eye Closed">
<path id="Vector" fill-rule="evenodd" clip-rule="evenodd" d="M22.2955 6.81059C22.6762 6.97376 22.8526 7.41467 22.6894 7.79539L22 7.49995C22.6894 7.79539 22.6895 7.79521 22.6894 7.79539L22.6887 7.79707L22.6876 7.79955L22.6844 7.80691L22.6738 7.83099C22.6648 7.85112 22.652 7.87934 22.6353 7.91502C22.6021 7.98637 22.5534 8.08769 22.4889 8.2141C22.3601 8.46675 22.1676 8.82063 21.9086 9.23641C21.483 9.91945 20.8725 10.7776 20.062 11.6301L21.0304 12.5985C21.3233 12.8913 21.3233 13.3662 21.0304 13.6591C20.7375 13.952 20.2626 13.952 19.9697 13.6591L18.9691 12.6585C18.3094 13.2112 17.5529 13.73 16.6951 14.1562L17.6287 15.5909C17.8546 15.9381 17.7563 16.4027 17.4091 16.6286C17.0619 16.8545 16.5973 16.7562 16.3714 16.409L15.2822 14.7351C14.5029 14.9896 13.6591 15.1626 12.75 15.2246V16.9999C12.75 17.4142 12.4143 17.7499 12 17.7499C11.5858 17.7499 11.25 17.4142 11.25 16.9999V15.2246C10.369 15.1645 9.54922 15.0002 8.78995 14.7584L7.71587 16.4091C7.48997 16.7562 7.02538 16.8546 6.67819 16.6287C6.33101 16.4027 6.23269 15.9382 6.4586 15.591L7.37101 14.1887C6.50663 13.7666 5.74394 13.2501 5.07854 12.6982L4.11756 13.6592C3.82467 13.9521 3.3498 13.9521 3.0569 13.6592C2.76401 13.3663 2.76401 12.8914 3.0569 12.5985L3.98067 11.6748C3.15611 10.8151 2.53537 9.9465 2.10289 9.25462C1.83997 8.83398 1.64472 8.47559 1.514 8.21964C1.4486 8.09157 1.39923 7.98889 1.36549 7.91658C1.34862 7.88042 1.33565 7.85183 1.32654 7.83143L1.31574 7.80704L1.3125 7.79959L1.31142 7.79708L1.31101 7.79613C1.31093 7.79595 1.31069 7.79539 2.00005 7.49995L1.31101 7.79613C1.14784 7.41541 1.32388 6.97376 1.70461 6.81059C2.08502 6.64756 2.52551 6.8235 2.689 7.20357C2.68894 7.20344 2.68906 7.2037 2.689 7.20357L2.68996 7.20576L2.69603 7.21947C2.70193 7.23267 2.71152 7.25386 2.72485 7.28243C2.75151 7.33959 2.79308 7.4262 2.84989 7.53742C2.96357 7.76004 3.13774 8.08022 3.37485 8.45955C3.85045 9.22042 4.57169 10.207 5.55573 11.1215C6.42163 11.9263 7.48271 12.6675 8.75177 13.1558C9.70626 13.523 10.7855 13.7499 12 13.7499C13.2418 13.7499 14.3422 13.5127 15.3125 13.1308C16.5739 12.6343 17.6278 11.8882 18.4868 11.0819C19.4563 10.1719 20.1669 9.19511 20.6355 8.44315C20.8691 8.06825 21.0407 7.75221 21.1527 7.53262C21.2086 7.4229 21.2496 7.33752 21.2758 7.28119C21.2889 7.25304 21.2984 7.23217 21.3042 7.21919L21.3102 7.20571L21.3107 7.20451C21.3106 7.20461 21.3107 7.20441 21.3107 7.20451M22.2955 6.81059C21.9149 6.64746 21.474 6.82399 21.3107 7.20451L22.2955 6.81059ZM2.689 7.20357C2.68894 7.20344 2.68906 7.2037 2.689 7.20357V7.20357Z" fill="#333333"/>
</g>
</svg>
