<svg width="121" height="120" viewBox="0 0 121 120" fill="none" xmlns="http://www.w3.org/2000/svg">
<g id="Frame">
<g id="Group">
<g id="Document">
<path id="Vector" d="M86.2441 107.381C86.2441 107.738 86.1129 108.094 85.8504 108.356C85.5879 108.619 85.2316 108.75 84.8941 108.75C84.5379 108.75 84.1816 108.619 83.9004 108.356L74.9191 99.3563L76.8504 97.4063L85.8504 106.406C86.1129 106.669 86.2441 107.006 86.2441 107.381ZM75.3504 93.6L71.1129 97.8375L68.9941 95.7188C70.6066 94.5188 72.0316 93.0938 73.2129 91.4813L75.3504 93.6Z" fill="#2979FF"/>
<path id="Vector_2" d="M85.8501 106.406L76.8501 97.4063L75.9126 98.3438L83.9751 106.406C84.2376 106.669 84.3688 107.006 84.3688 107.381C84.3688 107.756 84.2376 108.094 83.9751 108.356C83.9751 108.356 83.9563 108.356 83.9376 108.375C84.2188 108.619 84.5563 108.75 84.8938 108.75C85.2313 108.75 85.5876 108.619 85.8501 108.356C86.1126 108.094 86.2438 107.738 86.2438 107.381C86.2438 107.006 86.1126 106.669 85.8501 106.406ZM75.3501 93.6L74.3938 94.5563L73.4751 93.6L72.3501 92.4938C72.6313 92.1563 72.9501 91.8375 73.2126 91.4813L75.3501 93.6Z" fill="black" fill-opacity="0.12549"/>
<path id="Vector_3" d="M61.0266 95.3422C69.6113 93.3066 74.9203 84.6971 72.8847 76.1124C70.849 67.5277 62.2395 62.2186 53.6548 64.2543C45.0701 66.29 39.7611 74.8995 41.7967 83.4842C43.8324 92.0689 52.4419 97.3779 61.0266 95.3422Z" fill="white"/>
<path id="Vector_4" opacity="0.4" d="M90.5 24.375V31.875C90.5 32.9062 89.6562 33.75 88.625 33.75C87.5938 33.75 86.75 32.9062 86.75 31.875V24.375C86.75 23.3438 87.5938 22.5 88.625 22.5C89.6562 22.5 90.5 23.3438 90.5 24.375ZM90.5 41.25V48.75C90.5 49.7812 89.6562 50.625 88.625 50.625C87.5938 50.625 86.75 49.7812 86.75 48.75V41.25C86.75 40.2188 87.5938 39.375 88.625 39.375C89.6562 39.375 90.5 40.2188 90.5 41.25ZM36.125 41.25V48.75C36.125 49.7812 35.2812 50.625 34.25 50.625C33.2188 50.625 32.375 49.7812 32.375 48.75V41.25C32.375 40.2188 33.2188 39.375 34.25 39.375C35.2812 39.375 36.125 40.2188 36.125 41.25Z" fill="#333333"/>
<path id="Vector_5" d="M107.375 16.875H81.3689C79.4002 16.875 77.5627 17.925 76.5502 19.6125L73.1189 25.3313C72.7814 25.8938 72.1627 26.25 71.5064 26.25H36.1252V24.375C36.1252 23.3438 35.2814 22.5 34.2502 22.5C33.2189 22.5 32.3752 23.3438 32.3752 24.375V26.25H28.6252C25.5314 26.25 23.0002 28.7812 23.0002 31.875V50.625H13.9064C11.0939 50.625 8.75017 52.65 8.33767 55.425C7.86892 58.4625 7.62517 63.5813 9.12517 70.6875C10.8127 78.9 13.8877 83.775 15.5752 85.95C16.0972 86.6315 16.7702 87.1827 17.5413 87.5601C18.3124 87.9375 19.1605 88.1308 20.0189 88.125H39.4627C42.5939 94.8562 49.4189 99.5625 57.3314 99.5625C60.3127 99.5625 63.1252 98.8687 65.6564 97.6875L69.7814 101.812C70.1564 102.188 70.6252 102.356 71.1127 102.356C71.5064 102.356 71.8814 102.206 72.2189 101.963L81.2752 111C82.2689 111.994 83.5814 112.5 84.8939 112.5C86.2064 112.5 87.5002 111.994 88.4939 111H88.5127C89.4689 110.025 89.9939 108.75 89.9939 107.381C89.9939 106.013 89.4689 104.719 88.5127 103.762L79.4752 94.725C79.7189 94.4062 79.8877 94.0125 79.8877 93.6C79.8877 93.1125 79.6814 92.625 79.3252 92.2687L75.2002 88.1437L111.05 88.125H111.125L111.388 88.0688C111.481 88.05 111.575 88.05 111.65 88.0125C112.438 87.7875 113 87.0938 113 86.25V22.5C113 19.4062 110.469 16.875 107.375 16.875ZM57.3314 95.8125C48.5189 95.8125 41.3564 88.65 41.3564 79.8375C41.3564 71.025 48.5189 63.8625 57.3314 63.8625C66.1439 63.8625 73.3064 71.025 73.3064 79.8375C73.3064 88.65 66.1439 95.8125 57.3314 95.8125ZM85.8502 106.406C86.1127 106.669 86.2439 107.006 86.2439 107.381C86.2439 107.756 86.1127 108.094 85.8502 108.356C85.5877 108.619 85.2314 108.75 84.8939 108.75C84.5377 108.75 84.1814 108.619 83.9002 108.356L74.9189 99.3563L76.8502 97.4062L85.8502 106.406ZM75.3502 93.6L71.1127 97.8375L68.9939 95.7188C70.6064 94.5187 72.0314 93.0938 73.2127 91.4813L75.3502 93.6ZM76.5127 84.375C76.8502 82.9125 77.0564 81.3938 77.0564 79.8375C77.0564 68.9625 68.2064 60.1125 57.3314 60.1125C46.4564 60.1125 37.6064 68.9625 37.6064 79.8375C37.6064 81.3938 37.8127 82.9125 38.1502 84.375H20.0189C19.4377 84.375 18.8939 84.1125 18.5377 83.6625C17.0564 81.7312 14.3377 77.4 12.8002 69.9188C11.4127 63.3563 11.6189 58.725 12.0314 55.9875C12.1814 55.05 12.9689 54.375 13.9064 54.375H92.4689C93.4627 54.375 94.2689 55.125 94.3252 56.1C94.5502 59.4375 95.3564 64.7437 97.9814 71.0437C100.475 77.0062 103.944 81.5625 106.494 84.375H76.5127ZM109.25 81.825C106.925 79.2188 103.719 75.0375 101.431 69.6C99.0127 63.7687 98.2627 58.9125 98.0752 55.875C97.9064 52.9312 95.4502 50.625 92.4689 50.625H26.7502V31.875C26.7502 30.8438 27.5939 30 28.6252 30H32.3752V31.875C32.3752 32.9062 33.2189 33.75 34.2502 33.75C35.2814 33.75 36.1252 32.9062 36.1252 31.875V30H71.5064C73.4752 30 75.3127 28.95 76.3252 27.2625L79.7564 21.5437C80.0939 20.9812 80.7127 20.625 81.3689 20.625H107.375C108.406 20.625 109.25 21.4688 109.25 22.5V81.825Z" fill="#333333"/>
<path id="Vector_6" opacity="0.4" d="M90.5 15V13.125C90.5 10.0312 87.9688 7.5 84.875 7.5H83C81.9688 7.5 81.125 8.34375 81.125 9.375C81.125 10.4062 81.9688 11.25 83 11.25H84.875C85.9062 11.25 86.75 12.0937 86.75 13.125V15C86.75 16.0312 87.5938 16.875 88.625 16.875C89.6562 16.875 90.5 16.0312 90.5 15ZM34.25 16.875C35.2812 16.875 36.125 16.0312 36.125 15V13.125C36.125 12.0937 36.9688 11.25 38 11.25H39.875C40.9062 11.25 41.75 10.4062 41.75 9.375C41.75 8.34375 40.9062 7.5 39.875 7.5H38C34.9062 7.5 32.375 10.0312 32.375 13.125V15C32.375 16.0312 33.2188 16.875 34.25 16.875ZM66.125 11.25H73.625C74.6562 11.25 75.5 10.4062 75.5 9.375C75.5 8.34375 74.6562 7.5 73.625 7.5H66.125C65.0938 7.5 64.25 8.34375 64.25 9.375C64.25 10.4062 65.0938 11.25 66.125 11.25ZM49.25 11.25H56.75C57.7812 11.25 58.625 10.4062 58.625 9.375C58.625 8.34375 57.7812 7.5 56.75 7.5H49.25C48.2187 7.5 47.375 8.34375 47.375 9.375C47.375 10.4062 48.2187 11.25 49.25 11.25ZM110.169 97.5H108.294C107.262 97.5 106.419 98.3438 106.419 99.375C106.419 100.406 107.262 101.25 108.294 101.25H110.169C111.2 101.25 112.044 100.406 112.044 99.375C112.044 98.3438 111.2 97.5 110.169 97.5ZM100.794 97.5H98.9187C97.8875 97.5 97.0437 98.3438 97.0437 99.375C97.0437 100.406 97.8875 101.25 98.9187 101.25H100.794C101.825 101.25 102.669 100.406 102.669 99.375C102.669 98.3438 101.825 97.5 100.794 97.5ZM104.544 101.25C103.512 101.25 102.669 102.094 102.669 103.125V105C102.669 106.031 103.512 106.875 104.544 106.875C105.575 106.875 106.419 106.031 106.419 105V103.125C106.419 102.094 105.575 101.25 104.544 101.25ZM104.544 97.5C105.575 97.5 106.419 96.6563 106.419 95.625V93.75C106.419 92.7188 105.575 91.875 104.544 91.875C103.512 91.875 102.669 92.7188 102.669 93.75V95.625C102.669 96.6563 103.512 97.5 104.544 97.5Z" fill="#333333"/>
<path id="Vector_7" d="M22.6061 21.6061C23.1182 21.094 23.1182 20.2668 22.6061 19.7547L17.853 15.0016L22.6061 10.2485C23.1182 9.72332 23.1182 8.89613 22.6061 8.38406C22.094 7.87198 21.2668 7.87198 20.7547 8.38406L15.9885 13.1372L11.2354 8.38406C10.7233 7.87198 9.89613 7.87198 9.38406 8.38406C8.87198 8.89613 8.87198 9.72332 9.38406 10.2485L14.1372 15.0016L9.38406 19.7547C9.26234 19.8762 9.16577 20.0205 9.09988 20.1793C9.03399 20.3382 9.00007 20.5085 9.00007 20.6804C9.00007 20.8524 9.03399 21.0227 9.09988 21.1815C9.16577 21.3403 9.26234 21.4846 9.38406 21.6061C9.63353 21.8687 9.96178 22 10.3032 22C10.6445 22 10.9859 21.8687 11.2354 21.6061L15.9885 16.853L20.7547 21.6061C21.0042 21.8687 21.3325 22 21.6739 22C22.0152 22 22.3435 21.8687 22.6061 21.6061Z" fill="#333333"/>
</g>
</g>
</g>
</svg>
