<svg width="23" height="22" viewBox="0 0 23 22" fill="none" xmlns="http://www.w3.org/2000/svg">
<g id="Outline / Business, Statistic / Round Graph">
<g id="Vector">
<path d="M10.6459 1.83333C10.6459 1.45364 10.9537 1.14583 11.3334 1.14583C16.7757 1.14583 21.1875 5.55769 21.1875 11C21.1875 16.4423 16.7757 20.8542 11.3334 20.8542C5.89105 20.8542 1.47919 16.4423 1.47919 11C1.47919 8.24355 2.61186 5.7504 4.43541 3.96274C4.70655 3.69694 5.14183 3.70127 5.40763 3.97241C5.67343 4.24355 5.66911 4.67883 5.39797 4.94463C3.82735 6.48433 2.85419 8.6279 2.85419 11C2.85419 15.6829 6.65044 19.4792 11.3334 19.4792C16.0163 19.4792 19.8125 15.6829 19.8125 11C19.8125 6.31709 16.0163 2.52083 11.3334 2.52083C10.9537 2.52083 10.6459 2.21303 10.6459 1.83333Z" fill="#777777"/>
<path d="M10.6459 4.58333C10.6459 4.20364 10.9537 3.89583 11.3334 3.89583C15.2569 3.89583 18.4375 7.07648 18.4375 11C18.4375 14.9235 15.2569 18.1042 11.3334 18.1042C7.40983 18.1042 4.22919 14.9235 4.22919 11C4.22919 10.6203 4.53699 10.3125 4.91669 10.3125C5.29638 10.3125 5.60419 10.6203 5.60419 11C5.60419 14.1641 8.16922 16.7292 11.3334 16.7292C14.4975 16.7292 17.0625 14.1641 17.0625 11C17.0625 7.83587 14.4975 5.27083 11.3334 5.27083C10.9537 5.27083 10.6459 4.96303 10.6459 4.58333Z" fill="#777777"/>
<path d="M11.3334 6.64583C10.9537 6.64583 10.6459 6.95364 10.6459 7.33333C10.6459 7.71303 10.9537 8.02083 11.3334 8.02083C12.9787 8.02083 14.3125 9.35465 14.3125 11C14.3125 12.6453 12.9787 13.9792 11.3334 13.9792C10.9537 13.9792 10.6459 14.287 10.6459 14.6667C10.6459 15.0464 10.9537 15.3542 11.3334 15.3542C13.7381 15.3542 15.6875 13.4047 15.6875 11C15.6875 8.59526 13.7381 6.64583 11.3334 6.64583Z" fill="#777777"/>
</g>
</g>
</svg>
