<svg width="24" height="24" viewBox="0 0 24 24" fill="none" xmlns="http://www.w3.org/2000/svg">
<g id="Outline / Business, Statistic / Chart">
<path id="Vector" fill-rule="evenodd" clip-rule="evenodd" d="M22.75 12.0494V11.9506C22.75 11.2858 22.7501 10.7129 22.6884 10.2542C22.6223 9.76252 22.4732 9.29126 22.091 8.90901C21.7087 8.52676 21.2375 8.3777 20.7458 8.31161C20.2871 8.24993 19.7142 8.24996 19.0494 8.25L16.622 8.25C16.7049 8.01542 16.75 7.76298 16.75 7.5V4.5C16.75 3.25736 15.7426 2.25 14.5 2.25L2.75 2.25V2C2.75 1.58579 2.41421 1.25 2 1.25C1.58578 1.25 1.25 1.58579 1.25 2V22C1.25 22.4142 1.58578 22.75 2 22.75C2.41421 22.75 2.75 22.4142 2.75 22V21.75H9.49999C10.7426 21.75 11.75 20.7426 11.75 19.5V16.5C11.75 16.237 11.7049 15.9846 11.622 15.75L19.0494 15.75C19.7142 15.75 20.2871 15.7501 20.7458 15.6884C21.2375 15.6223 21.7087 15.4732 22.091 15.091C22.4732 14.7087 22.6223 14.2375 22.6884 13.7458C22.7501 13.2871 22.75 12.7142 22.75 12.0494ZM2.75 20.25H9.49999C9.91421 20.25 10.25 19.9142 10.25 19.5V16.5C10.25 16.0858 9.91421 15.75 9.49999 15.75L2.75 15.75V20.25ZM2.75 14.25L19 14.25C19.7283 14.25 20.1991 14.2484 20.546 14.2018C20.8713 14.158 20.9732 14.0874 21.0303 14.0303C21.0874 13.9732 21.158 13.8713 21.2018 13.546C21.2484 13.1991 21.25 12.7283 21.25 12C21.25 11.2717 21.2484 10.8009 21.2018 10.454C21.158 10.1287 21.0874 10.0268 21.0303 9.96967C20.9732 9.91258 20.8713 9.84197 20.546 9.79823C20.1991 9.75159 19.7283 9.75 19 9.75L2.75 9.75V14.25ZM2.75 8.25H14.5C14.9142 8.25 15.25 7.91421 15.25 7.5V4.5C15.25 4.08579 14.9142 3.75 14.5 3.75L2.75 3.75V8.25Z" fill="#333333"/>
</g>
</svg>
