<svg width="25" height="25" viewBox="0 0 25 25" fill="none" xmlns="http://www.w3.org/2000/svg">
<g id="Outline / List / List">
<path id="Vector" fill-rule="evenodd" clip-rule="evenodd" d="M17.5 3.75C17.7361 3.75 17.9584 3.86115 18.1 4.05L21.1 8.05C21.3485 8.38137 21.2814 8.85147 20.95 9.1C20.6186 9.34853 20.1485 9.28137 19.9 8.95L18.25 6.75V18.25L19.9 16.05C20.1485 15.7186 20.6186 15.6515 20.95 15.9C21.2814 16.1485 21.3485 16.6186 21.1 16.95L18.1 20.95C17.9584 21.1389 17.7361 21.25 17.5 21.25C17.2639 21.25 17.0416 21.1389 16.9 20.95L13.9 16.95C13.6515 16.6186 13.7186 16.1485 14.05 15.9C14.3814 15.6515 14.8515 15.7186 15.1 16.05L16.75 18.25V6.75L15.1 8.95C14.8515 9.28137 14.3814 9.34853 14.05 9.1C13.7186 8.85147 13.6515 8.38137 13.9 8.05L16.9 4.05C17.0416 3.86115 17.2639 3.75 17.5 3.75ZM3.75 7.5C3.75 7.08579 4.08579 6.75 4.5 6.75H11.5C11.9142 6.75 12.25 7.08579 12.25 7.5C12.25 7.91421 11.9142 8.25 11.5 8.25H4.5C4.08579 8.25 3.75 7.91421 3.75 7.5ZM3.75 12.5C3.75 12.0858 4.08579 11.75 4.5 11.75H11.5C11.9142 11.75 12.25 12.0858 12.25 12.5C12.25 12.9142 11.9142 13.25 11.5 13.25H4.5C4.08579 13.25 3.75 12.9142 3.75 12.5ZM3.75 17.5C3.75 17.0858 4.08579 16.75 4.5 16.75H11.5C11.9142 16.75 12.25 17.0858 12.25 17.5C12.25 17.9142 11.9142 18.25 11.5 18.25H4.5C4.08579 18.25 3.75 17.9142 3.75 17.5Z" fill="#666666"/>
</g>
</svg>
