<svg width="218" height="57" viewBox="0 0 218 57" fill="none" xmlns="http://www.w3.org/2000/svg">
<path d="M3.27363 50.408L0.729625 44.936L7.78563 42.056C8.55363 41.768 9.27363 41.432 10.0416 41.144V21.032L14.9856 20.12V39.032C14.9856 43.448 13.2096 46.376 9.80163 47.768L3.27363 50.408ZM20.1434 41.816V11.864L25.2794 10.424V40.376L20.1434 41.816ZM33.4188 14.264V8.648H39.2748V14.264H33.4188ZM27.2268 50.408L24.6827 44.888L31.6908 42.104C32.4588 41.768 33.1308 41.48 33.8508 41.192V20.696L38.9868 19.688V30.776C38.9868 33.128 40.5708 34.472 42.4908 34.472H45.0348C46.1388 34.472 47.0508 35.912 47.0508 37.736C47.0508 39.56 46.1388 41 45.0348 41H42.7308C40.9068 41 39.3228 40.472 38.1708 39.176V40.952C38.0748 44.168 36.6828 46.568 33.8028 47.768L27.2268 50.408ZM45.0156 41C43.9116 41 43.0476 39.56 43.0476 37.736C43.0476 35.912 43.9116 34.472 45.0156 34.472H57.3036C58.4076 34.472 59.2716 35.912 59.2716 37.736C59.2716 39.56 58.4076 41 57.3036 41H45.0156ZM57.2969 41C56.1929 41 55.3289 39.56 55.3289 37.736C55.3289 35.912 56.1929 34.472 57.2969 34.472H69.5849C70.6889 34.472 71.5529 35.912 71.5529 37.736C71.5529 39.56 70.6889 41 69.5849 41H57.2969ZM78.4581 6.44V0.871999H84.3141V6.44H78.4581ZM69.5301 41C68.4741 41 67.5621 39.56 67.5621 37.736C67.5621 35.912 68.4741 34.472 69.5301 34.472H84.6021H86.3781V31.064L85.5621 31.304C84.9861 31.544 84.3141 31.688 83.6901 31.688H77.4981C74.6661 31.688 72.3621 29.816 71.9781 26.936L71.4501 23.288C70.5861 17.336 73.5141 12.872 79.2261 11.672L87.2901 9.896L89.4981 11.768C90.6501 12.68 91.2261 14.024 91.2261 15.464V33.752C91.2261 37.976 88.1541 41 83.9781 41H69.5301ZM76.8741 26.168H86.3301V15.512L79.8021 16.904C76.8261 17.576 75.7701 19.112 76.2501 22.28L76.8741 26.168ZM96.784 41.816V11.864L101.92 10.424V40.376L96.784 41.816Z" fill="#333333"/>
<path d="M118.799 50.216C110.4 50.216 105.888 44.264 107.952 35.144L109.344 28.808H113.952L112.512 35.24C111.36 40.568 113.856 43.688 118.799 43.688H121.968C124.8 43.688 126.528 42.92 127.728 41.768L125.28 23.432L130.031 21.56L131.807 34.472H138.48C140.352 34.472 141.6 33.08 141.6 31.16V25.448H146.4V31.496C146.4 32.168 146.352 32.792 146.304 33.416L154.271 35.624L151.104 19.736L155.952 17.144L159.12 33.272C159.6 35.48 159.12 37.448 157.536 39.368L155.232 42.152L143.712 38.936C142.368 40.424 140.4 41 138.048 41H132.432C132.384 41.672 132.336 42.296 132.24 42.92C131.76 46.184 128.496 50.216 121.152 50.216H118.799ZM159.227 50.408L156.683 44.888L163.691 42.104C164.459 41.768 165.131 41.48 165.851 41.192V20.696L170.987 19.688V30.776C170.987 33.128 172.571 34.472 174.491 34.472H177.035C178.139 34.472 179.051 35.912 179.051 37.736C179.051 39.56 178.139 41 177.035 41H174.731C172.907 41 171.323 40.472 170.171 39.176V40.952C170.075 44.168 168.683 46.568 165.803 47.768L159.227 50.408ZM177.016 41C175.912 41 175.048 39.56 175.048 37.736C175.048 35.912 175.912 34.472 177.016 34.472H189.304C190.408 34.472 191.272 35.912 191.272 37.736C191.272 39.56 190.408 41 189.304 41H177.016ZM189.297 41C188.193 41 187.329 39.56 187.329 37.736C187.329 35.912 188.193 34.472 189.297 34.472H201.585C202.689 34.472 203.553 35.912 203.553 37.736C203.553 39.56 202.689 41 201.585 41H189.297ZM201.53 41C200.426 41 199.562 39.56 199.562 37.736C199.562 35.912 200.426 34.472 201.53 34.472H205.754C208.202 34.472 209.786 33.848 210.842 32.792L208.01 18.824L213.098 16.376L215.594 28.424C217.13 35.912 212.954 41 205.61 41H201.53ZM200.954 46.376H213.242V51.272H200.954V46.376ZM209.738 51.8L209.834 56.744H204.362L204.458 51.8H209.738Z" fill="#2979FF"/>
</svg>
