<svg width="182" height="186" viewBox="0 0 182 186" fill="none" xmlns="http://www.w3.org/2000/svg">
<g id="15">
<g id="Group">
<path id="Vector" d="M154.797 82.398C154.797 98.421 149.432 113.279 140.44 125.223C135.51 131.632 129.564 137.313 122.748 141.683C111.726 148.966 98.5294 153.19 84.3174 153.19C45.3069 153.19 13.6924 121.436 13.6924 82.398C13.6924 43.2145 45.3069 11.6056 84.1724 11.6056C98.3844 11.6056 111.581 15.8298 122.603 22.9673C129.419 27.3372 135.365 33.0181 140.295 39.4273C149.432 51.3717 154.797 66.2293 154.797 82.398Z" fill="#EAEEF9"/>
<path id="Vector_2" d="M2.67043 90.5553C3.97561 90.5553 5.13578 89.5356 5.13578 88.079C5.13578 86.768 4.12063 85.6027 2.67043 85.6027C1.22022 85.7484 0.205078 86.9137 0.205078 88.2247C0.205078 89.5356 1.22022 90.5553 2.67043 90.5553Z" fill="url(#paint0_linear_1595_9794)"/>
<path id="Vector_3" d="M170.314 60.6939C172.489 58.6546 172.634 55.3044 170.604 53.1194C168.574 50.9345 165.238 50.7888 162.918 52.8281C160.742 54.8674 160.597 58.2177 162.628 60.4026C164.658 62.5876 167.993 62.7332 170.314 60.6939Z" fill="#EAEEF9"/>
<path id="Vector_4" d="M169.154 37.0967C170.459 37.0967 171.475 36.077 171.475 34.766C171.475 33.4551 170.459 32.4354 169.154 32.4354C167.849 32.4354 166.834 33.4551 166.834 34.766C166.834 36.077 167.849 37.0967 169.154 37.0967Z" fill="url(#paint1_linear_1595_9794)"/>
</g>
<g id="Group_2">
<g id="Credit Card 1">
<g id="Group_3">
<g id="Vector_5" filter="url(#filter0_d_1595_9794)">
<path d="M128.985 86.3303L172.491 130.029C174.231 131.777 174.231 134.691 172.491 136.438L137.396 171.689C135.656 173.437 132.755 173.437 131.015 171.689L87.5088 127.99L128.985 86.3303Z" fill="url(#paint2_linear_1595_9794)"/>
</g>
<path id="Vector_6" d="M120.215 95.0336L112.524 102.759L159.285 149.726L166.975 142.001L120.215 95.0336Z" fill="#4260FF"/>
</g>
<path id="Vector_7" d="M137.547 161.429C139.868 159.097 139.868 155.316 137.547 152.983C135.225 150.651 131.46 150.651 129.138 152.983C126.816 155.316 126.816 159.097 129.138 161.429C131.46 163.762 135.225 163.762 137.547 161.429Z" fill="#4260FF"/>
<path id="Vector_8" d="M131.868 155.804C134.19 153.472 134.19 149.691 131.868 147.358C129.546 145.026 125.781 145.026 123.459 147.358C121.137 149.691 121.137 153.472 123.459 155.804C125.781 158.137 129.546 158.137 131.868 155.804Z" fill="#96A7FF"/>
</g>
<g id="Recipt 2">
<path id="Vector_9" d="M76.5062 34.3295L35.8797 75.2793L3.31495 42.5703C2.76467 42.0176 3.10705 41.0924 3.97576 41.0924H6.15107C7.15439 41.0924 7.95625 40.2838 7.95625 39.2815V35.2029C7.95625 34.7486 8.31456 34.3919 8.76144 34.3919H12.822C13.8617 34.3919 14.5931 33.556 14.7655 32.5171L14.7722 32.4765V32.4353V28.3567C14.7722 27.9285 15.1122 27.5227 15.6311 27.4001H19.638C20.6777 27.4001 21.4091 26.5642 21.5814 25.5253L21.5882 25.4846V25.4434V21.3649C21.5882 20.9556 21.9068 20.5348 22.5822 20.4082H26.599C27.6387 20.4082 28.37 19.5724 28.5424 18.5334L28.5492 18.4928V18.4516V14.373C28.5492 13.9531 28.872 13.5621 29.4994 13.5621H33.56C34.5996 13.5621 35.331 12.7262 35.5034 11.6873L35.5102 11.6466V11.6054V7.52685C35.5102 7.07259 35.8685 6.71588 36.3153 6.71588H40.3759C41.4156 6.71588 42.147 5.88 42.3194 4.8411L42.3261 4.80045V4.75925V2.59797C42.3903 1.95555 42.7014 1.58696 43.0046 1.44033C43.3051 1.29498 43.6549 1.33258 43.9371 1.6161L76.5062 34.3295Z" fill="white" stroke="#E5E9F4"/>
<g id="Group_4">
<path id="Vector_10" d="M47.1926 19.7624L42.6969 24.1323C42.2618 24.5693 41.5367 24.5693 41.1017 24.1323C40.6666 23.6953 40.6666 22.967 41.1017 22.53L45.5973 18.0144C46.0324 17.5774 46.7575 17.5774 47.1926 18.0144C47.6276 18.5971 47.6276 19.3254 47.1926 19.7624Z" fill="#C5CCDE"/>
<path id="Vector_11" d="M38.9251 28.0654L20.7975 46.1276C20.3624 46.5646 19.6373 46.5646 19.2023 46.1276C18.7672 45.6906 18.7672 44.9623 19.2023 44.5253L37.1848 26.4631C37.6199 26.0261 38.345 26.0261 38.7801 26.4631C39.3601 26.9001 39.3601 27.6284 38.9251 28.0654Z" fill="#C5CCDE"/>
<path id="Vector_12" d="M40.9568 34.0376L36.3161 38.6989L38.3464 36.6596C33.5607 41.4665 29.7902 45.2537 24.8595 50.2063C24.4244 50.6432 24.4244 51.3716 24.8595 51.8086C25.2946 52.2455 26.0197 52.2455 26.4547 51.8086C34.5759 43.6514 31.9655 46.2733 39.9416 38.2619L37.9114 40.3011L42.552 35.6399C43.5672 34.4746 41.9719 32.8723 40.9568 34.0376Z" fill="#C5CCDE"/>
</g>
</g>
<path id="Vector_13" d="M89.3937 21.365L147.982 80.213C150.157 82.398 150.737 85.6026 149.577 88.3702C137.831 115.318 116.513 136.73 89.6837 148.529C86.9283 149.694 83.7379 149.112 81.5626 146.927L22.8292 88.0789C20.6539 85.8939 20.0738 82.6893 21.234 79.9217C33.1257 52.974 54.4437 31.5615 81.2725 19.7627C84.0279 18.5974 87.2184 19.1801 89.3937 21.365Z" fill="#D4DAE8"/>
<path id="Vector_14" d="M103.316 55.8869L57.1993 102.062C55.8941 103.373 53.7188 103.373 52.4136 102.062L33.851 83.4173C32.5458 82.1063 32.5458 79.9214 33.851 78.6104L79.9675 32.4351C81.2727 31.1242 83.448 31.1242 84.7532 32.4351L103.316 51.08C104.621 52.391 104.621 54.4303 103.316 55.8869Z" fill="white"/>
<g id="Group_5">
<path id="Vector_15" d="M85.3328 109.491L74.3112 120.561C73.2961 121.581 71.8459 121.581 70.8307 120.561L63.5797 113.278C62.5646 112.258 62.5646 110.802 63.5797 109.782L74.6013 98.7118C75.6164 97.6921 77.0666 97.6921 78.0818 98.7118L85.3328 105.995C86.2029 107.015 86.2029 108.471 85.3328 109.491Z" fill="url(#paint3_linear_1595_9794)"/>
<path id="Vector_16" d="M103.461 91.1376L92.4392 102.208C91.424 103.228 89.9738 103.228 88.9587 102.208L81.7076 94.9249C80.6925 93.9052 80.6925 92.4486 81.7076 91.429L92.7292 80.3585C93.7444 79.3389 95.1946 79.3389 96.2097 80.3585L103.461 87.6417C104.476 88.6614 104.476 90.2637 103.461 91.1376Z" fill="white"/>
<path id="Vector_17" d="M121.588 72.9297L110.566 84.0001C109.551 85.0197 108.101 85.0197 107.086 84.0001L99.8346 76.7169C98.8195 75.6973 98.8195 74.2407 99.8346 73.221L110.856 62.1506C111.871 61.131 113.322 61.131 114.337 62.1506L121.588 69.4338C122.603 70.4534 122.603 71.91 121.588 72.9297Z" fill="white"/>
<path id="Vector_18" d="M100.27 124.494L89.2487 135.564C88.2336 136.584 86.7834 136.584 85.7682 135.564L78.5172 128.281C77.5021 127.262 77.5021 125.805 78.5172 124.785L89.5388 113.715C90.5539 112.695 92.0041 112.695 93.0193 113.715L100.27 120.998C101.14 122.018 101.14 123.474 100.27 124.494Z" fill="white"/>
<path id="Vector_19" d="M118.397 106.286L107.376 117.356C106.361 118.376 104.91 118.376 103.895 117.356L96.6442 110.073C95.629 109.054 95.629 107.597 96.6442 106.577L107.666 95.5069C108.681 94.4873 110.131 94.4873 111.146 95.5069L118.397 102.79C119.412 103.664 119.412 105.266 118.397 106.286Z" fill="white"/>
<path id="Vector_20" d="M136.67 87.9328L125.648 99.0032C124.633 100.023 123.183 100.023 122.168 99.0032L114.917 91.72C113.901 90.7004 113.901 89.2437 114.917 88.2241L125.938 77.1537C126.953 76.134 128.404 76.134 129.419 77.1537L136.67 84.4368C137.54 85.4565 137.54 86.9131 136.67 87.9328Z" fill="white"/>
</g>
<g id="Group_6">
<g id="Group_7">
<path id="Vector_21" d="M52.2684 77.7366C52.8485 77.5909 53.4285 78.0279 53.4285 78.6106L53.7186 82.1065H53.8636L55.7489 79.3389C56.0389 78.9019 56.764 78.7562 57.1991 79.1932L57.4891 79.4846C57.9242 79.9216 57.7792 80.6499 57.3441 80.9412L54.5887 82.8348V82.9805L57.9242 83.1262C58.5043 83.1262 58.9393 83.7088 58.7943 84.2915L58.6493 84.8741C58.5043 85.4568 57.9242 85.7481 57.3441 85.4568L54.1536 84.0001L55.6038 87.0591C55.8939 87.6417 55.6038 88.2244 55.0238 88.37L54.5887 88.5157C54.0086 88.6614 53.4285 88.2244 53.4285 87.6417L53.1385 84.1458L51.2532 86.9134C50.9632 87.3504 50.2381 87.4961 49.803 87.0591L49.513 86.9134C49.0779 86.4764 49.2229 85.7481 49.658 85.4568L52.2684 83.7088L48.7879 83.4175C48.2078 83.4175 47.7727 82.8348 47.9178 82.2522L48.0628 81.6695C48.2078 81.0869 48.7879 80.7955 49.368 81.0869L52.4134 82.5435L50.9632 79.4846C50.6731 78.9019 50.9632 78.3193 51.5433 78.1736L52.2684 77.7366Z" fill="#1C3754"/>
<path id="Vector_22" d="M62.7103 67.3943C63.2903 67.2487 63.8704 67.6857 63.8704 68.2683L64.1605 71.7642H64.3055L66.1908 68.9966C66.4808 68.5596 67.2059 68.414 67.641 68.851L67.931 69.1423C68.3661 69.5793 68.2211 70.3076 67.786 70.5989L65.0306 72.4926V72.6382L68.3661 72.7839C68.9462 72.7839 69.3812 73.3665 69.2362 73.9492L69.0912 74.5318C68.9462 75.1145 68.3661 75.4058 67.786 75.1145L64.5955 73.6579L66.0457 76.7168C66.3358 77.2994 66.0457 77.8821 65.4657 78.0278L65.0306 78.1734C64.4505 78.3191 63.8704 77.8821 63.8704 77.2994L63.5804 73.8035L61.6951 76.5711C61.4051 77.0081 60.68 77.1538 60.2449 76.7168L59.8099 76.5711C59.3748 76.1341 59.5198 75.4058 59.9549 75.1145L62.5652 73.3665L59.0848 73.0752C58.5047 73.0752 58.0696 72.4926 58.2146 71.9099L58.3596 71.3272C58.5047 70.7446 59.0848 70.4533 59.6648 70.7446L62.7103 72.2012L61.2601 69.1423C60.97 68.5596 61.2601 67.977 61.8401 67.8313L62.7103 67.3943Z" fill="#1C3754"/>
<path id="Vector_23" d="M73.0052 57.0521C73.5853 56.9064 74.1654 57.3434 74.1654 57.926L74.4554 61.422H74.6004L76.4857 58.6544C76.7757 58.0717 77.5008 58.0717 77.9359 58.5087L78.2259 58.8C78.661 59.237 78.661 59.9653 78.0809 60.2567L75.3255 62.1503V62.2959L78.661 62.4416C79.2411 62.4416 79.6761 63.0243 79.5311 63.6069L79.3861 64.0439C79.2411 64.6266 78.516 64.9179 78.0809 64.6266L75.0355 63.1699L76.4857 66.2289C76.7757 66.8115 76.4857 67.3942 75.7606 67.5398L75.3255 67.6855C74.7454 67.8312 74.1654 67.3942 74.1654 66.8115L73.8753 63.4613L71.99 66.3745C71.7 66.8115 70.9749 66.9572 70.5398 66.5202L70.2498 66.2289C69.8147 65.7919 69.8147 65.0636 70.3948 64.7722L73.0052 63.0243L69.6697 62.7329C69.0896 62.7329 68.6546 62.1503 68.7996 61.5676L68.9446 61.1306C69.0896 60.548 69.8147 60.2567 70.2498 60.548L73.2952 62.0046L71.845 58.9457C71.555 58.363 71.845 57.7804 72.4251 57.6347L73.0052 57.0521Z" fill="#1C3754"/>
<path id="Vector_24" d="M83.5917 46.5644C84.0267 46.4187 84.6068 46.71 84.6068 47.2927L84.8969 50.9343H85.0419L86.9272 48.021C87.2172 47.584 87.7973 47.584 88.2323 47.8753L88.8124 48.458C89.1025 48.7493 89.1025 49.4776 88.6674 49.769L85.767 51.8083V51.9539L89.2475 52.0996C89.8276 52.0996 90.1176 52.6822 89.9726 53.1192L89.6825 53.9932C89.5375 54.4302 88.9574 54.7215 88.5224 54.5759L85.3319 53.1192L86.7821 56.3238C86.9272 56.7608 86.7821 57.3435 86.202 57.4891L85.4769 57.6348C85.0419 57.7805 84.4618 57.3435 84.4618 56.9065L84.1718 53.2649L82.2865 56.1782C81.9964 56.6151 81.4164 56.6151 80.9813 56.3238L80.4012 55.7412C79.9662 55.3042 80.1112 54.7215 80.5462 54.4302L83.3016 52.5366L79.6761 52.2452C79.096 52.2452 78.806 51.6626 78.951 51.2256L79.2411 50.3516C79.3861 49.9146 79.9662 49.6233 80.4012 49.769L83.5917 51.2256L82.1415 48.021C81.9965 47.584 82.1415 47.0014 82.7216 46.8557L83.5917 46.5644Z" fill="#1C3754"/>
</g>
</g>
</g>
<g id="Group 628">
<g id="Vector_25" filter="url(#filter1_d_1595_9794)">
<path d="M158.805 40.0966C158.417 41.7496 157.835 43.4026 157.156 44.8612C155.313 48.3617 152.5 51.1815 149.008 52.9318C145.419 54.7793 141.151 55.4599 136.786 54.5848C126.698 52.4456 120.199 42.6247 122.333 32.5121C124.467 22.3995 134.264 15.8847 144.352 18.0239C147.941 18.8018 151.142 20.552 153.761 23.0802C158.223 27.553 160.066 33.9707 158.805 40.0966Z" fill="url(#paint4_linear_1595_9794)"/>
</g>
<path id="Vector_26" d="M143.571 30.9411L140.553 33.9591L137.528 30.9339C136.909 30.3151 135.879 30.245 135.193 30.9309C134.575 31.5482 134.508 32.5783 135.196 33.2658L138.221 36.2911L135.203 39.3091C134.586 39.9264 134.518 40.9565 135.206 41.6441C135.894 42.3316 136.855 42.3326 137.541 41.6467L140.559 38.6287L143.584 41.6543C144.203 42.2731 145.233 42.3428 145.919 41.657C146.536 41.0396 146.604 40.0099 145.916 39.3223L142.891 36.2967L145.909 33.2787C146.526 32.6614 146.594 31.6316 145.906 30.9441C145.218 30.2565 144.188 30.3238 143.571 30.9411Z" fill="url(#paint5_linear_1595_9794)"/>
</g>
</g>
<defs>
<filter id="filter0_d_1595_9794" x="79.5088" y="83.3303" width="102.287" height="102.67" filterUnits="userSpaceOnUse" color-interpolation-filters="sRGB">
<feFlood flood-opacity="0" result="BackgroundImageFix"/>
<feColorMatrix in="SourceAlpha" type="matrix" values="0 0 0 0 0 0 0 0 0 0 0 0 0 0 0 0 0 0 127 0" result="hardAlpha"/>
<feOffset dy="5"/>
<feGaussianBlur stdDeviation="4"/>
<feColorMatrix type="matrix" values="0 0 0 0 0.1125 0 0 0 0 0.295916 0 0 0 0 1 0 0 0 0.22 0"/>
<feBlend mode="normal" in2="BackgroundImageFix" result="effect1_dropShadow_1595_9794"/>
<feBlend mode="normal" in="SourceGraphic" in2="effect1_dropShadow_1595_9794" result="shape"/>
</filter>
<filter id="filter1_d_1595_9794" x="113.16" y="14.3294" width="54.8007" height="54.881" filterUnits="userSpaceOnUse" color-interpolation-filters="sRGB">
<feFlood flood-opacity="0" result="BackgroundImageFix"/>
<feColorMatrix in="SourceAlpha" type="matrix" values="0 0 0 0 0 0 0 0 0 0 0 0 0 0 0 0 0 0 127 0" result="hardAlpha"/>
<feOffset dy="5.4797"/>
<feGaussianBlur stdDeviation="4.38376"/>
<feColorMatrix type="matrix" values="0 0 0 0 1 0 0 0 0 0.1125 0 0 0 0 0.1125 0 0 0 0.22 0"/>
<feBlend mode="normal" in2="BackgroundImageFix" result="effect1_dropShadow_1595_9794"/>
<feBlend mode="normal" in="SourceGraphic" in2="effect1_dropShadow_1595_9794" result="shape"/>
</filter>
<linearGradient id="paint0_linear_1595_9794" x1="0.205078" y1="88.1842" x2="4.89301" y2="88.1842" gradientUnits="userSpaceOnUse">
<stop stop-color="#83A6FF"/>
<stop offset="1" stop-color="#5A78FF"/>
</linearGradient>
<linearGradient id="paint1_linear_1595_9794" x1="166.891" y1="34.7815" x2="171.293" y2="34.7815" gradientUnits="userSpaceOnUse">
<stop stop-color="#83A6FF"/>
<stop offset="1" stop-color="#5A78FF"/>
</linearGradient>
<linearGradient id="paint2_linear_1595_9794" x1="87.5568" y1="129.656" x2="173.923" y2="129.656" gradientUnits="userSpaceOnUse">
<stop stop-color="#83A6FF"/>
<stop offset="1" stop-color="#5A78FF"/>
</linearGradient>
<linearGradient id="paint3_linear_1595_9794" x1="67.7414" y1="117.186" x2="88.2907" y2="115.704" gradientUnits="userSpaceOnUse">
<stop stop-color="#FFC436"/>
<stop offset="1" stop-color="#FFE6A9"/>
</linearGradient>
<linearGradient id="paint4_linear_1595_9794" x1="121.938" y1="36.308" x2="159.212" y2="36.308" gradientUnits="userSpaceOnUse">
<stop stop-color="#F14B4B"/>
<stop offset="1" stop-color="#B51919"/>
</linearGradient>
<linearGradient id="paint5_linear_1595_9794" x1="147.199" y1="36.2992" x2="135.9" y2="36.313" gradientUnits="userSpaceOnUse">
<stop offset="0.0113208" stop-color="#C2D1FF"/>
<stop offset="1" stop-color="white"/>
</linearGradient>
</defs>
</svg>
