<svg width="188" height="138" viewBox="0 0 188 138" fill="none" xmlns="http://www.w3.org/2000/svg">
<g id="29">
<g id="Group">
<path id="Vector" d="M159.294 50.0146C161.582 47.8797 161.735 44.3725 159.599 42.0852C157.463 39.7979 153.954 39.6454 151.513 41.7802C149.225 43.915 149.072 47.4223 151.208 49.7096C153.497 51.9969 157.005 52.1494 159.294 50.0146Z" fill="#EAEEF9"/>
</g>
<g id="Group_2">
<path id="Vector_2" d="M187.21 111.162V123.971L153.801 127.021V111.162C153.801 110.4 154.716 110.095 155.174 110.552L156.089 111.467C156.394 111.772 156.852 111.772 157.157 111.467L158.835 109.79C159.14 109.485 159.598 109.485 159.903 109.79L161.581 111.467C161.886 111.772 162.344 111.772 162.649 111.467L164.327 109.79C164.632 109.485 165.09 109.485 165.395 109.79L167.073 111.467C167.378 111.772 167.836 111.772 168.141 111.467L169.819 109.79C170.124 109.485 170.582 109.485 170.887 109.79L172.565 111.467C172.87 111.772 173.328 111.772 173.633 111.467L175.311 109.79C175.616 109.485 176.074 109.485 176.379 109.79L178.057 111.467C178.362 111.772 178.82 111.772 179.125 111.467L180.803 109.79C181.108 109.485 181.566 109.485 181.871 109.79L183.549 111.467C183.854 111.772 184.312 111.772 184.617 111.467L185.532 110.552C186.448 110.095 187.21 110.4 187.21 111.162Z" fill="#E7EBF0"/>
<g id="Group_3">
<path id="Vector_3" d="M172.261 123.971H187.364C187.364 131.443 181.567 137.39 174.549 137.542C174.549 137.542 174.397 137.542 174.244 137.542H128.478V124.123H163.26L172.261 123.971Z" fill="#E7EBF0"/>
<path id="Vector_4" d="M175.464 137.543C172.718 137.39 170.277 136.17 168.447 134.34C168.294 134.188 168.142 134.035 167.989 133.73C166.463 131.9 165.243 129.308 165.243 126.716V46.5072H87.8975V125.801C88.05 128.546 89.1179 131.138 90.796 132.815C96.7457 138.915 91.4062 137.543 98.2712 137.543H175.464Z" fill="#BDC6D1"/>
<path id="Vector_5" d="M141.292 46.5072H106.51V33.0882H152.124C152.276 33.0882 152.429 33.0882 152.429 33.0882C159.599 33.2407 165.244 39.1877 165.244 46.6597H150.141" fill="#BDC6D1"/>
<path id="Vector_6" d="M153.344 32.9358C150.598 33.0883 148.157 34.3082 146.326 36.1381C146.174 36.2906 146.021 36.443 145.869 36.748C144.343 38.5779 143.123 41.1702 143.123 43.7625V124.429C143.123 132.053 137.173 138 129.85 138H65.9297V43.1525C66.0822 40.4077 67.1501 37.8154 68.8282 36.1381C70.8115 34.1557 73.4049 32.9358 76.3034 32.9358H140.682H152.886C153.191 32.9358 153.191 32.9358 153.344 32.9358Z" fill="#E7EBF0"/>
<path id="Vector_7" d="M101.933 127.173H118.866C118.866 130.071 119.934 132.815 121.918 134.798C123.748 136.628 126.342 138 129.24 138H52.9626C50.2166 138 47.4706 136.933 45.64 134.798C43.8093 132.968 42.5889 130.223 42.5889 127.173H92.627C92.627 127.173 101.933 127.326 101.933 127.173Z" fill="#CED7E2"/>
<g id="Group_4">
<path id="Vector_8" d="M118.867 38.8827H42.5889V127.173H118.867V38.8827Z" fill="#BDC6D1"/>
</g>
<g id="Group_5">
<g id="Group_6">
<path id="Vector_9" d="M89.1177 71.9727C95.2199 71.9727 95.3724 62.3659 89.1177 62.3659C83.0155 62.3659 83.0155 71.9727 89.1177 71.9727Z" fill="#CED7E2"/>
</g>
</g>
<g id="Group_7">
<g id="Group_8">
<path id="Vector_10" d="M88.6606 71.9727C94.7629 71.9727 94.9154 62.3659 88.6606 62.3659C82.5584 62.3659 82.5584 71.9727 88.6606 71.9727Z" fill="#CED7E2"/>
</g>
</g>
<path id="Vector_11" d="M118.714 15.8571H41.3682V50.3194H118.714V15.8571Z" fill="#BDC6D1"/>
<path id="Vector_12" d="M94.7631 15.7046H59.9805V2.28571H105.595C105.747 2.28571 105.9 2.28571 105.9 2.28571C113.07 2.43819 118.714 8.38522 118.714 15.8571H103.611" fill="#BDC6D1"/>
<path id="Vector_13" d="M106.815 2.28571C104.069 2.43819 101.628 3.6581 99.797 5.48795C99.6445 5.64044 99.4919 5.79293 99.3394 6.0979C97.8138 7.92776 96.5934 10.5201 96.5934 13.1124V60.8411H19.4004V12.5024C19.5529 9.75762 20.6208 7.16532 22.2989 5.48795C24.2822 3.50561 26.8756 2.28571 29.7741 2.28571H106.815V2.28571Z" fill="#E7EBF0"/>
</g>
<path id="Vector_14" d="M104.984 27.5987C107.882 28.8186 109.866 31.5634 109.866 34.7656V121.989C109.866 125.191 107.882 127.936 104.984 129.156C76.3034 140.287 44.5719 140.287 15.8915 129.156C12.993 127.936 11.0098 125.191 11.0098 121.989V34.7656C11.0098 31.5634 12.993 28.8186 15.8915 27.5987C44.4194 16.4671 76.3034 16.4671 104.984 27.5987Z" fill="#9DA9B8"/>
<path id="Vector_15" d="M94.6098 27.5987C97.5083 28.8186 99.4916 31.5634 99.4916 34.7656V121.989C99.4916 125.191 97.5083 127.936 94.6098 129.156C65.9294 140.287 34.1979 140.287 5.51751 129.156C2.61896 127.936 0.635742 125.191 0.635742 121.989V34.7656C0.635742 31.5634 2.61896 28.8186 5.51751 27.5987C34.0453 16.4671 65.9294 16.4671 94.6098 27.5987Z" fill="#D4DAE8"/>
<path id="Vector_16" d="M84.2358 70.7527H15.7385C13.7553 70.7527 12.0771 69.0754 12.0771 67.093V39.6452C12.0771 37.6628 13.7553 35.9855 15.7385 35.9855H84.2358C86.219 35.9855 87.8971 37.6628 87.8971 39.6452V67.093C87.7446 69.0754 86.219 70.7527 84.2358 70.7527Z" fill="white"/>
<g id="Group_9">
<path id="Vector_17" d="M31.1466 96.9808H14.6706C13.2976 96.9808 12.0771 95.7609 12.0771 94.3885V83.7143C12.0771 82.3419 13.2976 81.122 14.6706 81.122H30.994C32.367 81.122 33.5874 82.3419 33.5874 83.7143V94.3885C33.74 95.9134 32.5196 96.9808 31.1466 96.9808Z" fill="#2979FF"/>
<path id="Vector_18" d="M85.1512 96.9808H68.8278C67.4548 96.9808 66.2344 95.7609 66.2344 94.3885V83.7143C66.2344 82.3419 67.4548 81.122 68.8278 81.122H85.1512C86.5242 81.122 87.7447 82.3419 87.7447 83.7143V94.3885C87.7447 95.9134 86.6768 96.9808 85.1512 96.9808Z" fill="#B1B9CC"/>
<path id="Vector_19" d="M85.1512 119.244H68.8278C67.4548 119.244 66.2344 118.024 66.2344 116.652V105.978C66.2344 104.605 67.4548 103.385 68.8278 103.385H85.1512C86.5242 103.385 87.7447 104.605 87.7447 105.978V116.652C87.7447 118.177 86.6768 119.244 85.1512 119.244Z" fill="#B1B9CC"/>
</g>
<g id="Group_10">
<path id="Vector_20" d="M29.6212 96.9808H13.1452C11.7722 96.9808 10.5518 95.7609 10.5518 94.3885V83.7143C10.5518 82.3419 11.7722 81.122 13.1452 81.122H29.4686C30.8416 81.122 32.062 82.3419 32.062 83.7143V94.3885C32.2146 95.9134 30.9942 96.9808 29.6212 96.9808Z" fill="#2979FF"/>
<path id="Vector_21" d="M56.6239 96.9808H40.3005C38.9275 96.9808 37.707 95.7609 37.707 94.3885V83.7143C37.707 82.3419 38.9275 81.122 40.3005 81.122H56.6239C57.9969 81.122 59.2173 82.3419 59.2173 83.7143V94.3885C59.2173 95.9134 57.9969 96.9808 56.6239 96.9808Z" fill="white"/>
<path id="Vector_22" d="M83.6258 96.9808H67.3024C65.9294 96.9808 64.709 95.7609 64.709 94.3885V83.7143C64.709 82.3419 65.9294 81.122 67.3024 81.122H83.6258C84.9988 81.122 86.2193 82.3419 86.2193 83.7143V94.3885C86.2193 95.9134 85.1514 96.9808 83.6258 96.9808Z" fill="white"/>
<path id="Vector_23" d="M32.2146 116.652C32.2146 118.024 30.9942 119.244 29.6212 119.244H13.1452C11.7722 119.244 10.5518 118.024 10.5518 116.652V105.978C10.5518 104.605 11.7722 103.385 13.1452 103.385H29.4686C30.8416 103.385 32.062 104.605 32.062 105.978V116.652H32.2146Z" fill="white"/>
<path id="Vector_24" d="M56.6239 119.244H40.3005C38.9275 119.244 37.707 118.024 37.707 116.652V105.978C37.707 104.605 38.9275 103.385 40.3005 103.385H56.6239C57.9969 103.385 59.2173 104.605 59.2173 105.978V116.652C59.2173 118.177 57.9969 119.244 56.6239 119.244Z" fill="white"/>
<path id="Vector_25" d="M83.6258 119.244H67.3024C65.9294 119.244 64.709 118.024 64.709 116.652V105.978C64.709 104.605 65.9294 103.385 67.3024 103.385H83.6258C84.9988 103.385 86.2193 104.605 86.2193 105.978V116.652C86.2193 118.177 85.1514 119.244 83.6258 119.244Z" fill="white"/>
</g>
<g id="Group_11">
<g id="Group_12">
<path id="Vector_26" d="M30.0791 49.0997C30.6893 49.4047 30.6893 50.1671 30.3842 50.6246L27.9433 53.3693V53.5218L31.4521 52.7594C32.0623 52.6069 32.6725 53.0644 32.6725 53.6743V54.1318C32.6725 54.7417 32.0623 55.1992 31.4521 55.0467L27.9433 54.4368V54.5892L30.3842 57.334C30.8419 57.7915 30.6893 58.5539 30.0791 58.8589L29.6214 59.1639C29.0112 59.4689 28.401 59.1639 28.2484 58.7064L27.028 55.3517L25.5024 58.7064C25.3499 59.3164 24.5871 59.4689 23.9769 59.1639L23.5192 58.8589C23.0616 58.5539 22.909 57.7915 23.2141 57.334L25.5024 54.5892L22.1462 55.1992C21.536 55.3517 20.9258 54.8942 20.9258 54.2843V53.8268C20.9258 53.2169 21.536 52.7594 22.1462 52.9119L25.5024 53.5218L23.2141 50.7771C22.7564 50.3196 22.909 49.5571 23.5192 49.2522L23.9769 48.9472C24.5871 48.6422 25.1973 48.9472 25.3499 49.4047L26.5703 52.7594L27.7908 49.4047C27.9433 48.7947 28.7061 48.6422 29.1638 48.9472L30.0791 49.0997Z" fill="#1C3754"/>
<path id="Vector_27" d="M45.4873 49.0997C46.0975 49.4047 46.0975 50.1671 45.7924 50.6246L43.3515 53.3693V53.5218L46.8603 52.7594C47.4705 52.6069 48.0807 53.0644 48.0807 53.6743V54.1318C48.0807 54.7417 47.4705 55.1992 46.8603 55.0467L43.3515 54.4368V54.5892L45.7924 57.334C46.2501 57.7915 46.0975 58.5539 45.4873 58.8589L45.0296 59.1639C44.4194 59.4689 43.8092 59.1639 43.6566 58.7064L42.4362 55.3517L40.9106 58.7064C40.7581 59.3164 39.9953 59.4689 39.3851 59.1639L38.9274 58.8589C38.4698 58.5539 38.3172 57.7915 38.6223 57.334L40.9106 54.5892L37.5544 55.1992C36.9442 55.3517 36.334 54.8942 36.334 54.2843V53.8268C36.334 53.2169 36.9442 52.7594 37.5544 52.9119L40.9106 53.5218L38.6223 50.7771C38.1646 50.3196 38.3172 49.5571 38.9274 49.2522L39.3851 48.9472C39.9953 48.6422 40.6055 48.9472 40.7581 49.4047L41.9785 52.7594L43.199 49.4047C43.3515 48.7947 44.1143 48.6422 44.572 48.9472L45.4873 49.0997Z" fill="#1C3754"/>
<path id="Vector_28" d="M60.8955 49.0996C61.5057 49.4046 61.6583 50.167 61.2006 50.6245L58.9123 53.3693V53.5217L62.2685 52.9118C62.8787 52.7593 63.4889 53.2168 63.4889 53.9792V54.4367C63.4889 55.0466 62.8787 55.5041 62.2685 55.5041L58.7597 54.8941V55.0466L61.0481 57.6389C61.5057 58.0964 61.3532 58.8588 60.7429 59.1638L60.2853 59.4688C59.6751 59.7738 59.0648 59.4688 58.7597 59.0113L57.5393 55.6566L56.3188 58.7063C56.1663 59.3163 55.4035 59.6213 54.7933 59.1638L54.3356 58.8588C53.7254 58.5539 53.7254 57.7914 54.0305 57.3339L56.3188 54.5892L52.9626 55.1991C52.3524 55.3516 51.7422 54.8941 51.7422 54.1317V53.6742C51.7422 53.0643 52.3524 52.6068 52.9626 52.6068L56.3188 53.2168L54.0305 50.472C53.5729 50.0145 53.7254 49.2521 54.3356 48.9471L54.7933 48.6421C55.4035 48.3372 56.0137 48.6421 56.3188 49.2521L57.5393 52.6068L58.7597 49.2521C58.9123 48.6421 59.6751 48.3372 60.2853 48.6421L60.8955 49.0996Z" fill="#1C3754"/>
<path id="Vector_29" d="M76.4556 49.2523C76.9133 49.5573 77.0658 50.1672 76.7607 50.6247L74.3199 53.5219V53.6744L77.9812 52.912C78.5914 52.7595 79.0491 53.217 79.0491 53.8269V54.7418C79.0491 55.3518 78.5914 55.6568 77.9812 55.6568L74.3199 55.0468V55.1993L76.7607 57.9441C77.0658 58.4016 77.0659 59.0115 76.6082 59.3165L75.8454 59.7739C75.3877 60.0789 74.7775 59.7739 74.625 59.3165L73.252 55.8093L71.879 59.3165C71.7264 59.7739 71.1162 60.0789 70.6585 59.7739L69.8958 59.3165C69.4381 59.0115 69.2855 58.4016 69.7432 57.9441L72.1841 55.0468L68.6753 55.6568C68.2176 55.8093 67.6074 55.3518 67.6074 54.7418V53.8269C67.6074 53.217 68.0651 52.912 68.6753 52.912L72.1841 53.6744L69.7432 50.7772C69.4381 50.3197 69.4381 49.7097 70.0483 49.4048L70.8111 48.9473C71.2688 48.6423 71.879 48.9473 72.0315 49.4048L73.252 52.912L74.625 49.4048C74.7775 48.9473 75.3877 48.6423 75.8454 48.9473L76.4556 49.2523Z" fill="#1C3754"/>
</g>
</g>
<path id="Vector_30" d="M96.746 18.4495V26.0739C96.1358 25.6164 95.3731 25.1589 94.6103 24.854C81.1854 19.5169 67.1503 16.7721 53.1152 16.3146L54.3357 11.1301L93.6949 13.4174L96.746 18.4495Z" fill="#E7EBF0"/>
<g id="Group_13">
<g id="Group_14">
<path id="Vector_31" d="M74.4727 63.7384C74.4727 61.6035 76.3033 59.7737 78.4391 59.7737H121.307C123.443 59.7737 125.274 61.6035 125.274 63.7384V133.73C125.274 135.865 123.443 137.695 121.307 137.695H78.4391C76.3033 137.695 74.4727 135.865 74.4727 133.73V63.7384Z" fill="#2979FF"/>
<path id="Vector_32" d="M94.6098 59.7737H85.1514V137.695H94.6098V59.7737Z" fill="#2979FF"/>
<path id="Vector_33" d="M109.56 91.1862C110.323 91.1862 110.933 91.7962 110.933 92.5586V99.7256C110.933 100.488 110.323 101.098 109.56 101.098C108.798 101.098 108.188 100.488 108.188 99.7256V92.5586C108.188 91.7962 108.798 91.1862 109.56 91.1862Z" fill="url(#paint0_linear_1595_9642)"/>
<path id="Vector_34" d="M110.933 104.148V128.088C110.933 128.851 110.323 129.461 109.56 129.461C108.798 129.461 108.188 128.851 108.188 128.088V104.148C108.188 103.385 108.798 102.775 109.56 102.775C110.323 102.775 110.933 103.385 110.933 104.148Z" fill="url(#paint1_linear_1595_9642)"/>
<path id="Vector_35" d="M116.426 117.414V128.088C116.426 128.851 115.815 129.461 115.053 129.461C114.29 129.461 113.68 128.851 113.68 128.088V117.414C113.68 116.652 114.29 116.042 115.053 116.042C115.815 116.042 116.426 116.652 116.426 117.414Z" fill="url(#paint2_linear_1595_9642)"/>
</g>
<path id="Vector_36" d="M115.052 76.395C117.917 76.395 120.239 74.0738 120.239 71.2104C120.239 68.347 117.917 66.0258 115.052 66.0258C112.187 66.0258 109.865 68.347 109.865 71.2104C109.865 74.0738 112.187 76.395 115.052 76.395Z" fill="#2979FF"/>
<path id="Vector_37" d="M115.052 83.2569C117.917 83.2569 120.239 80.9357 120.239 78.0723C120.239 75.2089 117.917 72.8877 115.052 72.8877C112.187 72.8877 109.865 75.2089 109.865 78.0723C109.865 80.9357 112.187 83.2569 115.052 83.2569Z" fill="url(#paint3_linear_1595_9642)"/>
</g>
</g>
<g id="Group_15">
<g id="Vector_38" filter="url(#filter0_d_1595_9642)">
<path d="M138.891 19.6613C138.891 20.934 138.722 22.2067 138.468 23.3946C138.298 24.1582 138.044 24.837 137.79 25.5157C136.181 29.7581 132.792 33.152 128.557 34.7641C128.218 34.849 127.964 35.0187 127.625 35.1035C126.016 35.6126 124.406 35.8671 122.627 35.8671C113.648 35.8671 106.363 28.5703 106.363 19.5764C106.363 10.5826 113.648 3.28571 122.627 3.28571C131.606 3.37055 138.891 10.6674 138.891 19.6613Z" fill="url(#paint4_linear_1595_9642)"/>
</g>
<g id="Group_16">
<path id="Vector_39" d="M120.933 26.0248C120.424 26.0248 119.916 25.8551 119.577 25.4308L115.85 21.6976C115.088 20.9339 115.088 19.7461 115.85 18.9824C116.612 18.2188 117.798 18.2188 118.561 18.9824L120.933 21.3582L127.709 14.5704C128.472 13.8067 129.658 13.8067 130.42 14.5704C131.182 15.334 131.182 16.5219 130.42 17.2855L122.288 25.4308C121.949 25.8551 121.441 26.0248 120.933 26.0248Z" fill="url(#paint5_linear_1595_9642)"/>
</g>
</g>
</g>
<defs>
<filter id="filter0_d_1595_9642" x="98.3633" y="0.285706" width="48.5283" height="48.5814" filterUnits="userSpaceOnUse" color-interpolation-filters="sRGB">
<feFlood flood-opacity="0" result="BackgroundImageFix"/>
<feColorMatrix in="SourceAlpha" type="matrix" values="0 0 0 0 0 0 0 0 0 0 0 0 0 0 0 0 0 0 127 0" result="hardAlpha"/>
<feOffset dy="5"/>
<feGaussianBlur stdDeviation="4"/>
<feColorMatrix type="matrix" values="0 0 0 0 0.1125 0 0 0 0 0.295916 0 0 0 0 1 0 0 0 0.22 0"/>
<feBlend mode="normal" in2="BackgroundImageFix" result="effect1_dropShadow_1595_9642"/>
<feBlend mode="normal" in="SourceGraphic" in2="effect1_dropShadow_1595_9642" result="shape"/>
</filter>
<linearGradient id="paint0_linear_1595_9642" x1="109.631" y1="101.115" x2="109.631" y2="91.1933" gradientUnits="userSpaceOnUse">
<stop stop-color="#BDCFFF"/>
<stop offset="1" stop-color="#91A5FF" stop-opacity="0.5"/>
</linearGradient>
<linearGradient id="paint1_linear_1595_9642" x1="109.631" y1="129.452" x2="109.631" y2="102.756" gradientUnits="userSpaceOnUse">
<stop stop-color="#BDCFFF"/>
<stop offset="1" stop-color="#91A5FF" stop-opacity="0.5"/>
</linearGradient>
<linearGradient id="paint2_linear_1595_9642" x1="115.13" y1="129.452" x2="115.13" y2="115.972" gradientUnits="userSpaceOnUse">
<stop stop-color="#BDCFFF"/>
<stop offset="1" stop-color="#91A5FF" stop-opacity="0.5"/>
</linearGradient>
<linearGradient id="paint3_linear_1595_9642" x1="115.091" y1="83.216" x2="115.091" y2="72.9092" gradientUnits="userSpaceOnUse">
<stop stop-color="#BDCFFF"/>
<stop offset="1" stop-color="#91A5FF" stop-opacity="0.5"/>
</linearGradient>
<linearGradient id="paint4_linear_1595_9642" x1="113.889" y1="6.29507" x2="131.832" y2="33.5766" gradientUnits="userSpaceOnUse">
<stop stop-color="#83FF9E"/>
<stop offset="1" stop-color="#24AF0E"/>
</linearGradient>
<linearGradient id="paint5_linear_1595_9642" x1="127.29" y1="22.2732" x2="120.561" y2="15.5553" gradientUnits="userSpaceOnUse">
<stop offset="0.0113208" stop-color="#C2D1FF"/>
<stop offset="1" stop-color="white"/>
</linearGradient>
</defs>
</svg>
