<svg width="128" height="128" viewBox="0 0 128 128" fill="none" xmlns="http://www.w3.org/2000/svg">
<g id="Frame">
<g id="Group">
<path id="Vector" d="M112.582 77.8084H60.9552L46.9528 61.1296H98.5795L112.582 77.8084ZM3.87885 77.8084H32.9504L46.9528 61.1296H17.8813L3.87885 77.8084Z" fill="#FFD683"/>
<path id="Vector_2" d="M60.9552 77.8084L46.9528 61.1296V118.012H98.5794V77.8084H60.9552Z" fill="#FFC040"/>
<path id="Vector_3" d="M32.9504 77.8084H17.8813V118.012H46.9528V61.1296L32.9504 77.8084Z" fill="#E5AC39"/>
<path id="Vector_4" d="M69.0037 106.977H53.7988C53.0037 106.977 52.3443 106.318 52.3443 105.523C52.3443 104.728 53.0037 104.068 53.7988 104.068H69.0037C69.7988 104.068 70.4582 104.728 70.4582 105.523C70.4582 106.318 69.7988 106.977 69.0037 106.977ZM69.0037 112.621H53.7988C53.0037 112.621 52.3443 111.961 52.3443 111.166C52.3443 110.371 53.0037 109.712 53.7988 109.712H69.0037C69.7988 109.712 70.4582 110.371 70.4582 111.166C70.4582 111.961 69.7988 112.621 69.0037 112.621Z" fill="#1A5464"/>
<path id="Vector_5" d="M98.5794 61.1296H54.3224C59.8885 65.7648 66.8315 68.286 74.1625 68.286C80.0388 68.286 85.6631 66.6375 90.5503 63.5927L90.8412 63.8836C90.8606 66.4436 91.8885 68.9066 93.7309 70.749L100.771 77.789H112.582L98.5794 61.1296Z" fill="black" fill-opacity="0.0313726"/>
<path id="Vector_6" d="M99.394 57.8911L95.5346 54.0317C94.8752 54.8657 94.177 55.6802 93.4012 56.456C92.6255 57.2317 91.8109 57.9299 90.977 58.5893L94.8364 62.4487C94.3903 64.3881 94.9334 66.5214 96.4461 68.0342L113.823 85.4111C116.17 87.7578 119.99 87.7578 122.337 85.4111C124.684 83.0645 124.684 79.2439 122.337 76.8972L104.96 59.5202C103.467 57.9881 101.353 57.4645 99.394 57.8911Z" fill="#FF7146"/>
<path id="Vector_7" d="M74.1625 64.4074C89.19 64.4074 101.372 52.2252 101.372 37.1977C101.372 22.1702 89.19 9.98804 74.1625 9.98804C59.135 9.98804 46.9528 22.1702 46.9528 37.1977C46.9528 52.2252 59.135 64.4074 74.1625 64.4074Z" fill="#1C8FC7"/>
<path id="Vector_8" d="M74.1625 56.6692C71.6069 56.6787 69.0749 56.1795 66.7142 55.2006C64.3534 54.2217 62.2112 52.7826 60.4122 50.9674C52.8292 43.3844 52.8292 31.0305 60.4122 23.4474C64.097 19.7626 68.9649 17.7456 74.1625 17.7456C79.3601 17.7456 84.2473 19.7626 87.9128 23.4474C95.4958 31.0305 95.4958 43.3844 87.9128 50.9674C86.1112 52.7792 83.9685 54.2159 81.6083 55.1946C79.2482 56.1732 76.7175 56.6744 74.1625 56.6692Z" fill="#F6F0F5"/>
<path id="Vector_9" d="M76.2182 37.1978L81.0085 32.4075C81.571 31.8451 81.571 30.9142 81.0085 30.3517C80.4461 29.7893 79.5152 29.7893 78.9528 30.3517L74.1625 35.1421L69.3722 30.3517C68.8097 29.7893 67.8788 29.7893 67.3164 30.3517C66.754 30.9142 66.754 31.8451 67.3164 32.4075L72.1067 37.1978L67.3164 41.9881C66.754 42.5505 66.754 43.4814 67.3164 44.0439C67.6073 44.3348 67.9758 44.4705 68.3443 44.4705C68.7128 44.4705 69.0813 44.3348 69.3722 44.0439L74.1625 39.2536L78.9528 44.0439C79.2437 44.3348 79.6122 44.4705 79.9807 44.4705C80.3491 44.4705 80.7176 44.3348 81.0085 44.0439C81.571 43.4814 81.571 42.5505 81.0085 41.9881L76.2182 37.1978Z" fill="#0E4B5C"/>
</g>
</g>
</svg>
