<svg width="24" height="25" viewBox="0 0 24 25" fill="none" xmlns="http://www.w3.org/2000/svg">
<g id="Outline / Essentional, UI / Share">
<path id="Vector" fill-rule="evenodd" clip-rule="evenodd" d="M16.5 2.75C14.7051 2.75 13.25 4.20507 13.25 6C13.25 6.19591 13.2673 6.38776 13.3006 6.57412L8.56991 9.88558C8.54587 9.9024 8.52312 9.92038 8.50168 9.93939C7.94993 9.50747 7.25503 9.25 6.5 9.25C4.70507 9.25 3.25 10.7051 3.25 12.5C3.25 14.2949 4.70507 15.75 6.5 15.75C7.25503 15.75 7.94993 15.4925 8.50168 15.0606C8.52312 15.0796 8.54587 15.0976 8.56991 15.1144L13.3006 18.4259C13.2673 18.6122 13.25 18.8041 13.25 19C13.25 20.7949 14.7051 22.25 16.5 22.25C18.2949 22.25 19.75 20.7949 19.75 19C19.75 17.2051 18.2949 15.75 16.5 15.75C15.4472 15.75 14.5113 16.2506 13.9174 17.0267L9.43806 13.8911C9.63809 13.4694 9.75 12.9978 9.75 12.5C9.75 12.0022 9.63809 11.5306 9.43806 11.1089L13.9174 7.9733C14.5113 8.74942 15.4472 9.25 16.5 9.25C18.2949 9.25 19.75 7.79493 19.75 6C19.75 4.20507 18.2949 2.75 16.5 2.75ZM14.75 6C14.75 5.0335 15.5335 4.25 16.5 4.25C17.4665 4.25 18.25 5.0335 18.25 6C18.25 6.9665 17.4665 7.75 16.5 7.75C15.5335 7.75 14.75 6.9665 14.75 6ZM6.5 10.75C5.5335 10.75 4.75 11.5335 4.75 12.5C4.75 13.4665 5.5335 14.25 6.5 14.25C7.4665 14.25 8.25 13.4665 8.25 12.5C8.25 11.5335 7.4665 10.75 6.5 10.75ZM16.5 17.25C15.5335 17.25 14.75 18.0335 14.75 19C14.75 19.9665 15.5335 20.75 16.5 20.75C17.4665 20.75 18.25 19.9665 18.25 19C18.25 18.0335 17.4665 17.25 16.5 17.25Z" fill="#333333"/>
</g>
</svg>
