<svg width="24" height="24" viewBox="0 0 24 24" fill="none" xmlns="http://www.w3.org/2000/svg">
<g id="Outline / List /  Sort From Bottom To Top">
<path id="Vector" fill-rule="evenodd" clip-rule="evenodd" d="M16.7628 3.28849C17.0691 3.1864 17.4063 3.29174 17.6 3.55L20.6 7.55C20.8485 7.88137 20.7814 8.35147 20.45 8.6C20.1186 8.84853 19.6485 8.78137 19.4 8.45L17.75 6.25V20C17.75 20.4142 17.4142 20.75 17 20.75C16.5858 20.75 16.25 20.4142 16.25 20V4C16.25 3.67718 16.4566 3.39058 16.7628 3.28849ZM13 8.75H4V7.25H13V8.75ZM13 13.75H6V12.25H13V13.75ZM13 18.75H8V17.25H13V18.75Z" fill="#2979FF"/>
</g>
</svg>
