<svg width="58" height="30" viewBox="0 0 58 30" fill="none" xmlns="http://www.w3.org/2000/svg">
<path fill-rule="evenodd" clip-rule="evenodd" d="M45.1658 12C42.3077 12 39.6667 10.4752 38.2376 8L35.9282 4C32.849 -1.33334 25.151 -1.33333 22.0718 4L19.7624 8C18.3333 10.4752 15.6923 12 12.8342 12H0.5C0.223858 12 0 12.2239 0 12.5V12.5C0 12.7761 0.223857 13 0.499999 13H7.34937C11.5833 13 14.2295 17.5833 12.1125 21.25V21.25C9.99555 24.9167 12.6417 29.5 16.8756 29.5H41.1244C45.3583 29.5 48.0044 24.9167 45.8875 21.25V21.25C43.7705 17.5833 46.4167 13 50.6506 13H57.5C57.7761 13 58 12.7761 58 12.5V12.5C58 12.2239 57.7761 12 57.5 12H45.1658Z" fill="white"/>
</svg>
