<svg width="24" height="25" viewBox="0 0 24 25" fill="none" xmlns="http://www.w3.org/2000/svg">
<g id="Outline / Essentional, UI / Trash Bin 2">
<g id="Vector">
<path fill-rule="evenodd" clip-rule="evenodd" d="M5.11674 8.2517C5.53004 8.22415 5.88741 8.53685 5.91497 8.95015L6.37491 15.8493C6.46477 17.1971 6.52879 18.1349 6.66936 18.8406C6.80571 19.525 6.99604 19.8873 7.26946 20.1431C7.54287 20.3989 7.91703 20.5647 8.60903 20.6552C9.32243 20.7485 10.2624 20.75 11.6133 20.75H12.3866C13.7375 20.75 14.6775 20.7485 15.3909 20.6552C16.0829 20.5647 16.4571 20.3989 16.7305 20.1431C17.0039 19.8873 17.1942 19.525 17.3306 18.8406C17.4711 18.1349 17.5352 17.1971 17.625 15.8493L18.085 8.95015C18.1125 8.53685 18.4699 8.22415 18.8832 8.2517C19.2965 8.27925 19.6092 8.63663 19.5816 9.04993L19.1182 16.0017C19.0327 17.2844 18.9636 18.3206 18.8017 19.1336C18.6333 19.9789 18.3468 20.685 17.7552 21.2385C17.1636 21.7919 16.4401 22.0308 15.5854 22.1425C14.7634 22.2501 13.725 22.2501 12.4394 22.25H11.5605C10.275 22.2501 9.23651 22.2501 8.41447 22.1425C7.55982 22.0308 6.83628 21.7919 6.24468 21.2385C5.65309 20.685 5.36667 19.9789 5.19827 19.1336C5.03629 18.3205 4.96723 17.2844 4.88174 16.0017L4.41829 9.04993C4.39074 8.63663 4.70344 8.27925 5.11674 8.2517Z" fill="#FF0000"/>
<path fill-rule="evenodd" clip-rule="evenodd" d="M10.3552 2.75004L10.3092 2.75002C10.0928 2.74988 9.90433 2.74976 9.72631 2.77819C9.02301 2.89049 8.41441 3.32915 8.08546 3.96084C8.0022 4.12074 7.94269 4.29964 7.8744 4.50496L7.85988 4.54858L7.76279 4.83984C7.7438 4.89681 7.73851 4.91251 7.7339 4.92524C7.55878 5.40936 7.10476 5.73659 6.59011 5.74964C6.57658 5.74998 6.56001 5.75004 6.49996 5.75004H3.49988C3.08566 5.75004 2.74988 6.08582 2.74988 6.50004C2.74988 6.91425 3.08566 7.25004 3.49988 7.25004L6.50853 7.25004L6.52527 7.25004H17.4747L17.4914 7.25004L20.5 7.25004C20.9142 7.25004 21.25 6.91425 21.25 6.50004C21.25 6.08582 20.9142 5.75004 20.5 5.75004H17.5C17.4399 5.75004 17.4233 5.74998 17.4098 5.74964C16.8952 5.73659 16.4411 5.40933 16.266 4.92522C16.2614 4.91258 16.256 4.89653 16.2371 4.83984L16.14 4.54858L16.1255 4.50494C16.0572 4.29961 15.9977 4.12073 15.9145 3.96084C15.5855 3.32915 14.9769 2.89049 14.2736 2.77819C14.0956 2.74976 13.9071 2.74988 13.6907 2.75002L13.6447 2.75004H10.3552ZM9.14445 5.43548C9.10518 5.54404 9.05954 5.64902 9.00803 5.75004H14.9919C14.9404 5.64902 14.8947 5.54405 14.8555 5.4355L14.8168 5.32216L14.717 5.02292C14.6258 4.7494 14.6049 4.69363 14.584 4.65364C14.4744 4.44307 14.2715 4.29686 14.0371 4.25942C13.9926 4.25231 13.933 4.25004 13.6447 4.25004H10.3552C10.0669 4.25004 10.0074 4.25231 9.96284 4.25942C9.7284 4.29686 9.52554 4.44307 9.41589 4.65364C9.39506 4.69363 9.37407 4.74942 9.2829 5.02292L9.1831 5.32234C9.16807 5.36742 9.15638 5.40251 9.14445 5.43548Z" fill="#FF0000"/>
</g>
</g>
</svg>
