<svg width="28" height="19" viewBox="0 0 28 19" fill="none" xmlns="http://www.w3.org/2000/svg">
<path d="M3.63962 3.70405C3.08495 4.86672 2.80762 5.93872 2.80762 6.92005C2.80762 7.75205 2.99962 8.37605 3.38362 8.79205C3.77828 9.20805 4.43428 9.41605 5.35162 9.41605H6.72762C7.41028 9.41605 7.92228 9.35738 8.26362 9.24005C8.60495 9.12271 8.83428 8.92005 8.95162 8.63205C9.07962 8.34405 9.14362 7.91738 9.14362 7.35205V2.32805H11.1756V7.35205C11.1756 8.69605 10.813 9.75738 10.0876 10.536C9.37295 11.3254 8.25295 11.72 6.72762 11.72H5.35162C4.39162 11.72 3.57028 11.5067 2.88762 11.08C2.20495 10.6534 1.68762 10.0774 1.33562 9.35205C0.983617 8.62672 0.807617 7.81605 0.807617 6.92005C0.807617 6.26938 0.919617 5.57605 1.14362 4.84005C1.36762 4.10405 1.63428 3.42672 1.94362 2.80805L3.63962 3.70405ZM5.35162 0.856049H7.47962V2.93605H5.35162V0.856049Z" fill="black"/>
<path d="M6.77934 18.568C5.65934 18.568 4.83267 18.2427 4.29933 17.592C3.77667 16.9414 3.51533 16.0667 3.51533 14.968V7.88003H5.54733V14.968C5.54733 15.3734 5.56867 15.6614 5.61133 15.832C5.66467 16.0027 5.77133 16.12 5.93133 16.184C6.102 16.2374 6.38467 16.264 6.77934 16.264H7.35534L7.45133 17.448L7.35534 18.568H6.77934Z" fill="black"/>
<path d="M7.19184 16.264H7.60783C7.82117 16.264 7.98117 16.216 8.08784 16.12C8.20517 16.0134 8.2905 15.8427 8.34383 15.608L8.75983 14.072C8.9945 13.144 9.38917 12.4347 9.94383 11.944C10.4985 11.4534 11.1652 11.208 11.9438 11.208C12.5625 11.208 13.1118 11.3787 13.5918 11.72C14.0825 12.0507 14.4665 12.5147 14.7438 13.112C15.0212 13.6987 15.1598 14.36 15.1598 15.096C15.1598 15.9814 15.0158 16.7067 14.7278 17.272C14.4398 17.8267 14.0772 18.232 13.6398 18.488C13.2132 18.7334 12.7652 18.856 12.2958 18.856C11.9332 18.856 11.5492 18.7814 11.1438 18.632C10.7492 18.4934 10.1572 18.2374 9.36783 17.864C9.1225 18.088 8.8505 18.264 8.55183 18.392C8.25317 18.5094 7.94917 18.568 7.63984 18.568H7.19184V16.264ZM10.3438 15.928C10.9198 16.1947 11.3465 16.376 11.6238 16.472C11.9012 16.568 12.1518 16.616 12.3758 16.616C12.9625 16.616 13.2558 16.1147 13.2558 15.112C13.2558 14.568 13.1385 14.152 12.9038 13.864C12.6692 13.5654 12.3652 13.416 11.9918 13.416C11.6825 13.416 11.4105 13.528 11.1758 13.752C10.9412 13.976 10.7705 14.3014 10.6638 14.728L10.3438 15.928Z" fill="black"/>
<path d="M17.3839 16.3919C18.0452 16.3919 18.5465 16.3332 18.8879 16.2159C19.2292 16.1092 19.4639 15.9226 19.5919 15.6559C19.7305 15.3999 19.8105 15.0319 19.8319 14.5519H18.4559C17.4425 14.5519 16.6372 14.2586 16.0399 13.6719C15.4532 13.0746 15.1599 12.2426 15.1599 11.1759C15.1599 10.4186 15.2985 9.74656 15.5759 9.15989C15.8639 8.57323 16.2532 8.11989 16.7439 7.79989C17.2452 7.46923 17.8105 7.3039 18.4399 7.3039C19.1225 7.3039 19.7199 7.4639 20.2319 7.7839C20.7545 8.1039 21.1545 8.55723 21.4319 9.14389C21.7199 9.73056 21.8639 10.4079 21.8639 11.1759V12.2479H22.7439L22.8719 13.4159L22.7439 14.5519H21.8639C21.8212 15.7999 21.4372 16.8026 20.7119 17.5599C19.9865 18.3172 18.8772 18.6959 17.3839 18.6959H15.4799V16.3919H17.3839ZM17.1119 11.0639C17.1119 11.5012 17.2185 11.8266 17.4319 12.0399C17.6452 12.2426 17.9865 12.3439 18.4559 12.3439H19.8319V11.1279C19.8319 10.0186 19.3679 9.46389 18.4399 9.46389C18.0025 9.46389 17.6719 9.61323 17.4479 9.91189C17.2239 10.2106 17.1119 10.5946 17.1119 11.0639Z" fill="black"/>
<path d="M22.5607 12.2479H24.3367C24.8167 12.2479 25.1581 12.1679 25.3607 12.0079C25.5634 11.8372 25.6541 11.5972 25.6327 11.2879C25.5794 10.6266 25.4407 9.74123 25.2167 8.6319L27.1367 8.1519C27.2647 8.71723 27.3821 9.31989 27.4887 9.95989C27.6061 10.5999 27.6647 11.1172 27.6647 11.5119C27.6647 12.0452 27.5474 12.5412 27.3127 12.9999C27.0781 13.4586 26.7207 13.8319 26.2407 14.1199C25.7714 14.4079 25.1901 14.5519 24.4967 14.5519H22.5607V12.2479ZM23.0087 4.4719H24.9127V6.3759H23.0087V4.4719ZM26.0007 4.4719H27.9207V6.3759H26.0007V4.4719Z" fill="black"/>
</svg>
