<svg width="16" height="16" viewBox="0 0 16 16" fill="none" xmlns="http://www.w3.org/2000/svg">
<path d="M2.65658 1.28002C2.18458 2.26402 1.94858 3.15602 1.94858 3.95602C1.94858 4.70002 2.13658 5.30802 2.51258 5.78002C2.89658 6.26002 3.46458 6.50002 4.21658 6.50002H5.50058C6.05258 6.50002 6.48858 6.43202 6.80858 6.29602C7.12858 6.16002 7.35658 5.94802 7.49258 5.66002C7.63658 5.37202 7.70858 4.98802 7.70858 4.50802V0.68002H8.45258V4.50802C8.45258 6.39602 7.46858 7.34002 5.50058 7.34002H4.21658C3.57658 7.34002 3.02858 7.18002 2.57258 6.86002C2.11658 6.54802 1.77258 6.13202 1.54058 5.61202C1.31658 5.10002 1.20458 4.54802 1.20458 3.95602C1.20458 3.02002 1.47658 2.01602 2.02058 0.94402L2.65658 1.28002ZM4.62793 0H5.69593V1.068H4.62793V0Z" fill="#292D32"/>
<path d="M2.016 14.828C1.288 14.828 0.771999 14.636 0.467999 14.252C0.163998 13.868 0.0119991 13.296 0.0119991 12.536L0 7.04001H0.743999L0.755999 12.536C0.755999 12.936 0.787999 13.236 0.851999 13.436C0.923999 13.636 1.048 13.78 1.224 13.868C1.4 13.948 1.664 13.988 2.016 13.988H2.172L2.232 14.42L2.172 14.828H2.016Z" fill="#292D32"/>
<path d="M1.67526 13.988H2.01126C2.21126 13.988 2.37926 13.936 2.51526 13.832C2.65926 13.728 2.75526 13.584 2.80326 13.4L3.18726 12.02C3.35526 11.42 3.61526 10.952 3.96726 10.616C4.31926 10.272 4.74326 10.1 5.23926 10.1C5.63926 10.1 5.99126 10.216 6.29526 10.448C6.59926 10.68 6.83527 10.992 7.00326 11.384C7.17126 11.776 7.25526 12.204 7.25526 12.668C7.25526 13.228 7.17527 13.692 7.01527 14.06C6.85527 14.42 6.65127 14.68 6.40327 14.84C6.15527 15.008 5.88726 15.092 5.59926 15.092C5.30326 15.092 4.99926 15.032 4.68726 14.912C4.38326 14.792 3.89526 14.56 3.22326 14.216C3.07126 14.408 2.88726 14.56 2.67126 14.672C2.46326 14.776 2.24326 14.828 2.01126 14.828H1.67526V13.988ZM3.55926 13.472C4.19126 13.792 4.63126 14.004 4.87926 14.108C5.12726 14.204 5.36726 14.252 5.59926 14.252C5.88726 14.252 6.11126 14.14 6.27126 13.916C6.43126 13.684 6.51126 13.268 6.51126 12.668C6.51126 12.14 6.39927 11.72 6.17527 11.408C5.95927 11.096 5.64726 10.94 5.23926 10.94C4.91926 10.94 4.64726 11.048 4.42326 11.264C4.19926 11.48 4.02726 11.804 3.90726 12.236L3.55926 13.472Z" fill="#292D32"/>
<path d="M9.20858 14.264C9.77658 14.264 10.2206 14.188 10.5406 14.036C10.8686 13.892 11.0966 13.676 11.2246 13.388C11.3606 13.1 11.4286 12.724 11.4286 12.26V12.068H10.0126C9.37258 12.068 8.85258 11.884 8.45258 11.516C8.06058 11.14 7.86458 10.604 7.86458 9.90801C7.86458 9.42801 7.95258 8.99601 8.12858 8.61201C8.31258 8.22001 8.56858 7.91201 8.89658 7.68801C9.22458 7.45601 9.59258 7.34001 10.0006 7.34001C10.6566 7.34001 11.1806 7.58001 11.5726 8.06001C11.9726 8.53201 12.1726 9.14801 12.1726 9.90801V11.228H12.8446L12.9046 11.66L12.8446 12.068H12.1726V12.26C12.1726 13.14 11.9366 13.832 11.4646 14.336C11.0006 14.848 10.2486 15.104 9.20858 15.104H8.02058V14.264H9.20858ZM8.60858 9.90801C8.60858 10.38 8.72458 10.72 8.95658 10.928C9.18858 11.128 9.54058 11.228 10.0126 11.228H11.4286V9.90801C11.4286 9.36401 11.3046 8.94001 11.0566 8.63601C10.8166 8.32401 10.4646 8.16801 10.0006 8.16801C9.56858 8.16801 9.22858 8.32801 8.98058 8.64801C8.73258 8.96001 8.60858 9.38001 8.60858 9.90801Z" fill="#292D32"/>
<path d="M12.1726 11.228H13.1278C13.5918 11.228 13.9198 11.14 14.1118 10.964C14.3118 10.78 14.4118 10.544 14.4118 10.256C14.4118 10.032 14.3718 9.70001 14.2918 9.26001C14.2198 8.81201 14.1358 8.39201 14.0398 8.00001L14.7598 7.80801C14.8558 8.22401 14.9438 8.66801 15.0238 9.14001C15.1118 9.61201 15.1558 9.98401 15.1558 10.256C15.1558 10.56 15.0838 10.852 14.9398 11.132C14.7958 11.404 14.5718 11.628 14.2678 11.804C13.9638 11.98 13.5838 12.068 13.1278 12.068H12.1726V11.228ZM11.6358 5.288H12.7038V6.356H11.6358V5.288ZM13.6278 5.288H14.6958V6.356H13.6278V5.288Z" fill="#292D32"/>
</svg>
