<svg width="22" height="22" viewBox="0 0 22 22" fill="none" xmlns="http://www.w3.org/2000/svg">
<path d="M5.2082 3.61591C4.65354 4.77858 4.3762 5.85058 4.3762 6.83191C4.3762 7.66391 4.5682 8.28791 4.9522 8.70391C5.34687 9.11991 6.00287 9.32791 6.9202 9.32791H8.2962C8.97887 9.32791 9.49087 9.26925 9.8322 9.15191C10.1735 9.03458 10.4029 8.83191 10.5202 8.54391C10.6482 8.25591 10.7122 7.82925 10.7122 7.26391V2.23991H12.7442V7.26391C12.7442 8.60791 12.3815 9.66925 11.6562 10.4479C10.9415 11.2372 9.82154 11.6319 8.2962 11.6319H6.9202C5.9602 11.6319 5.13887 11.4186 4.4562 10.9919C3.77354 10.5652 3.2562 9.98925 2.9042 9.26391C2.5522 8.53858 2.3762 7.72791 2.3762 6.83191C2.3762 6.18125 2.4882 5.48791 2.7122 4.75191C2.9362 4.01591 3.20287 3.33858 3.5122 2.71991L5.2082 3.61591ZM6.9202 0.767914H9.0482V2.84791H6.9202V0.767914Z" fill="#3D8361"/>
<path d="M3.79574 21.568C2.67574 21.568 1.84907 21.2427 1.31574 20.592C0.793072 19.9414 0.531738 19.0667 0.531738 17.968V10.88H2.56374V14.424V17.968C2.56374 18.3734 2.58507 18.6614 2.62774 18.832C2.68107 19.0027 2.78774 19.12 2.94774 19.184C3.11841 19.2374 3.40107 19.264 3.79574 19.264H4.37174L4.46774 20.448L4.37174 21.4556L3.79574 21.568Z" fill="#3D8361"/>
<path d="M3.19218 19.264H3.60818C3.82151 19.264 3.98151 19.216 4.08818 19.12C4.20551 19.0134 4.29085 18.8427 4.34418 18.608L4.76018 17.072C4.99485 16.144 5.38951 15.4347 5.94418 14.944C6.49885 14.4534 7.16551 14.208 7.94418 14.208C8.56285 14.208 9.11218 14.3787 9.59218 14.72C10.0828 15.0507 10.4668 15.5147 10.7442 16.112C11.0215 16.6987 11.1602 17.36 11.1602 18.096C11.1602 18.9814 11.0162 19.7067 10.7282 20.272C10.4402 20.8267 10.0775 21.232 9.64018 21.488C9.21352 21.7334 8.76552 21.856 8.29618 21.856C7.93352 21.856 7.54951 21.7814 7.14418 21.632C6.74952 21.4934 6.15751 21.2374 5.36818 20.864C5.12285 21.088 4.85085 21.264 4.55218 21.392C4.25351 21.5094 3.94951 21.568 3.64018 21.568H3.19218V19.264ZM6.34418 18.928C6.92018 19.1947 7.34685 19.376 7.62418 19.472C7.90151 19.568 8.15218 19.616 8.37618 19.616C8.96285 19.616 9.25618 19.1147 9.25618 18.112C9.25618 17.568 9.13885 17.152 8.90418 16.864C8.66952 16.5654 8.36551 16.416 7.99218 16.416C7.68285 16.416 7.41085 16.528 7.17618 16.752C6.94151 16.976 6.77085 17.3014 6.66418 17.728L6.34418 18.928Z" fill="#3D8361"/>
<path d="M13.3842 19.3919C14.0455 19.3919 14.5469 19.3332 14.8882 19.2159C15.2295 19.1092 15.4642 18.9226 15.5922 18.6559C15.7309 18.3999 15.8109 18.0319 15.8322 17.5519H14.4562C13.4429 17.5519 12.6375 17.2586 12.0402 16.6719C11.4535 16.0746 11.1602 15.2426 11.1602 14.1759C11.1602 13.4186 11.2989 12.7466 11.5762 12.1599C11.8642 11.5732 12.2535 11.1199 12.7442 10.7999C13.2455 10.4692 13.8109 10.3039 14.4402 10.3039C15.1229 10.3039 15.7202 10.4639 16.2322 10.7839C16.7549 11.1039 17.1549 11.5572 17.4322 12.1439C17.7202 12.7306 17.8642 13.4079 17.8642 14.1759V15.2479H18.7442L18.8722 16.4159L18.7442 17.5519H17.8642C17.8215 18.7999 17.4375 19.8026 16.7122 20.5599C15.9869 21.3172 14.8775 21.6959 13.3842 21.6959H11.4802V19.3919H13.3842ZM13.1122 14.0639C13.1122 14.5012 13.2189 14.8266 13.4322 15.0399C13.6455 15.2426 13.9869 15.3439 14.4562 15.3439H15.8322V14.1279C15.8322 13.0186 15.3682 12.4639 14.4402 12.4639C14.0029 12.4639 13.6722 12.6132 13.4482 12.9119C13.2242 13.2106 13.1122 13.5946 13.1122 14.0639Z" fill="#3D8361"/>
<path d="M16.001 15.2479H17.777C18.257 15.2479 18.5983 15.1679 18.801 15.0079C19.0036 14.8372 19.0943 14.5972 19.073 14.2879C19.0196 13.6266 18.881 12.7412 18.657 11.6319L20.577 11.1519C20.705 11.7172 20.8223 12.3199 20.929 12.9599C21.0463 13.5999 21.105 14.1172 21.105 14.5119C21.105 15.0452 20.9876 15.5412 20.753 15.9999C20.5183 16.4586 20.161 16.8319 19.681 17.1199C19.2116 17.4079 18.6303 17.5519 17.937 17.5519H16.001V15.2479ZM16.449 7.47191H18.353V9.37591H16.449V7.47191ZM19.441 7.47191H21.361V9.37591H19.441V7.47191Z" fill="#3D8361"/>
</svg>
